<?xml version="1.0" encoding="utf-8"?>
<!-- Generator: Adobe Illustrator 21.1.0, SVG Export Plug-In . SVG Version: 6.00 Build 0)  -->
<svg version="1.1" xmlns="http://www.w3.org/2000/svg" xmlns:xlink="http://www.w3.org/1999/xlink" x="0px" y="0px"
	 viewBox="0 0 200 200" style="enable-background:new 0 0 200 200;" xml:space="preserve">
<style type="text/css">
	.st0{fill:#FFFFFF;}
</style>
<g id="Layer_1">
	<g>
		<path class="st0" d="M84.6,93.6c-0.6,0-1-0.4-1-1V53.1c0-0.6,0.4-1,1-1s1,0.4,1,1v39.5C85.6,93.2,85.2,93.6,84.6,93.6z"/>
	</g>
	<g>
		<path class="st0" d="M96.2,171.9c-14.7,0-26.6-11.4-31.5-22l-22.6-41.5c-1-1.8-1.3-4-0.7-6c0.6-2,1.9-3.7,3.7-4.8l0.7-0.4
			c0.9-0.5,2.1-0.8,2.7-0.9c1.6-0.3,3.3,0,4.8,0.8c1.6,0.8,2.5,2.1,3.4,3.3c0.6,0.8,1.2,1.5,1.8,2.3l4.2,5.2
			c1.3,1.6,2.6,3.1,3.8,4.7c0.5,0.6,1.6,2,2.5,3.3v-62c0-4.8,3.4-8.4,7.9-8.4h0.8c2.3,0,4.5,1,5.9,2.7v-2.3c0-4.4,3.5-7.9,7.9-7.9
			h0.8c4.4,0,8,3.5,8,7.9l0,2.6c1.5-1.7,3.7-2.9,5.8-2.9h0.8c4.4,0,7.9,3.5,7.9,7.9v16.2c1.5-1.6,3.6-2.7,5.9-2.7h0.8
			c4.4,0,7.9,3.5,7.9,7.9v61.4c0,0.2,0,0.5,0,0.7C128.7,156.5,114.1,171.9,96.2,171.9z M49.7,98.2c-0.3,0-0.6,0-0.9,0.1
			c-0.8,0.2-1.6,0.4-2.1,0.7L46,99.4c-1.4,0.8-2.4,2-2.8,3.6c-0.4,1.5-0.2,3.1,0.6,4.5L66.5,149c4.6,10.1,15.9,20.9,29.7,20.9
			c16.8,0,30.5-14.5,31.2-33.1c0-0.2,0-0.4,0-0.6V74.8c0-3.3-2.7-5.9-5.9-5.9h-0.8c-3.3,0-5.9,2.7-5.9,5.9c0,0.6-0.4,1-1,1
			s-1-0.4-1-1V53.4c0-3.3-2.7-5.9-5.9-5.9h-0.8c-3,0-5.8,3.2-5.8,5.7c0,0,0,0,0,0v45.9c0,0.6-0.4,1-1,1s-1-0.4-1-1l0-53.3
			c0-3.3-2.7-5.9-6-5.9h-0.8c-3.3,0-5.9,2.7-5.9,5.9v7.6c0,0.6-0.4,1-1,1s-1-0.4-1-1c0-3.3-2.7-5.9-5.9-5.9H77
			c-3.4,0-5.9,2.8-5.9,6.4V119c0,0.5-0.3,0.9-0.8,1c-0.4,0.1-0.9-0.1-1.1-0.5c-0.3-0.5-3.1-4.3-4.2-5.6c-1.3-1.6-2.6-3.2-3.8-4.7
			L57,104c-0.6-0.8-1.3-1.6-1.9-2.4c-0.8-1.1-1.6-2.1-2.8-2.8C51.5,98.4,50.6,98.2,49.7,98.2z"/>
	</g>
	<g>
		<path class="st0" d="M113.8,106.1c-0.6,0-1-0.4-1-1V74c0-0.6,0.4-1,1-1s1,0.4,1,1v31.2C114.8,105.7,114.4,106.1,113.8,106.1z"/>
	</g>
</g>
<g id="Layer_2">
</g>
</svg>
