<?xml version="1.0" encoding="utf-8"?>
<!-- Generator: Adobe Illustrator 21.1.0, SVG Export Plug-In . SVG Version: 6.00 Build 0)  -->
<svg version="1.1" xmlns="http://www.w3.org/2000/svg" xmlns:xlink="http://www.w3.org/1999/xlink" x="0px" y="0px"
	 viewBox="0 0 200 200" style="enable-background:new 0 0 200 200;" xml:space="preserve">
<style type="text/css">
	.st0{fill:#FFFFFF;}
	.st1{fill:none;stroke:#FFFFFF;stroke-width:2;stroke-miterlimit:10;}
</style>
<g id="Layer_1">
	<g>
		<path class="st0" d="M100,169.5l-59.7-68c-6.1-7.3-9.5-16.5-9.5-26.1c0-22.3,18.2-40.5,40.5-40.5c10.9,0,21,4.2,28.7,11.9
			c7.7-7.7,17.8-11.9,28.7-11.9c22.3,0,40.5,18.2,40.5,40.5c0,4.1-0.6,8.1-1.8,12c-0.2,0.8-0.5,1.6-0.8,2.4
			c-0.2,0.6-0.5,1.3-0.8,1.9c-1.5,3.5-3.6,6.8-6.1,9.7L100,169.5z M71.3,36.9c-21.2,0-38.5,17.3-38.5,38.5c0,9,3.2,17.8,9,24.7
			l58.2,66.3l58.1-66.3c2.3-2.8,4.3-5.9,5.8-9.2c0.3-0.6,0.5-1.2,0.8-1.8c0.3-0.8,0.5-1.5,0.8-2.2c1.1-3.7,1.7-7.5,1.7-11.4
			c0-21.2-17.3-38.5-38.5-38.5c-10.7,0-20.6,4.3-27.9,12l-0.7,0.8L99.2,49C91.9,41.2,81.9,36.9,71.3,36.9z"/>
	</g>
	<g>
		<path class="st1" d="M136.2,126.7"/>
	</g>
</g>
<g id="Layer_2">
</g>
</svg>
