<?xml version="1.0" encoding="utf-8"?>
<!-- Generator: Adobe Illustrator 21.1.0, SVG Export Plug-In . SVG Version: 6.00 Build 0)  -->
<svg version="1.1" id="Layer_3" xmlns="http://www.w3.org/2000/svg" xmlns:xlink="http://www.w3.org/1999/xlink" x="0px" y="0px"
	 viewBox="0 0 165 165" style="enable-background:new 0 0 165 165;" xml:space="preserve">
    <style>
        .positions0{fill:#F8F8F8;}
        .positions1{fill:#0434C0;}
        .positions2{fill:#07FFDE;}
    </style>
<g>
	<circle class="positions0" cx="82.5" cy="82.6" r="82.5"/>
</g>
<g>
	<g>
		<path class="positions1" d="M82.5,127.1c-24.5,0-44.5-20-44.5-44.5C38,58,58,38.1,82.5,38.1c24.5,0,44.5,20,44.5,44.5
			C127,107.1,107.1,127.1,82.5,127.1z M82.5,43.1C60.8,43.1,43,60.8,43,82.6c0,21.8,17.7,39.5,39.5,39.5c21.8,0,39.5-17.7,39.5-39.5
			C122,60.8,104.3,43.1,82.5,43.1z"/>
	</g>
	<g>
		<g>
			<path class="positions1" d="M82.5,102.2c-1.4,0-2.5-1.1-2.5-2.5V65.4c0-1.4,1.1-2.5,2.5-2.5S85,64,85,65.4v34.3
				C85,101.1,83.9,102.2,82.5,102.2z"/>
		</g>
		<g>
			<path class="positions1" d="M99.7,85.1H65.4c-1.4,0-2.5-1.1-2.5-2.5s1.1-2.5,2.5-2.5h34.3c1.4,0,2.5,1.1,2.5,2.5S101.1,85.1,99.7,85.1z"
				/>
		</g>
	</g>
</g>
</svg>
