<?xml version="1.0" encoding="utf-8"?>
<!-- Generator: Adobe Illustrator 21.1.0, SVG Export Plug-In . SVG Version: 6.00 Build 0)  -->
<svg version="1.1" id="Layer_3" xmlns="http://www.w3.org/2000/svg" xmlns:xlink="http://www.w3.org/1999/xlink" x="0px" y="0px"
	 viewBox="0 0 165 165" style="enable-background:new 0 0 165 165;" xml:space="preserve">
<g>
	<circle class="positions0" cx="82.5" cy="82.5" r="82.5"/>
		<path class="positions2" d="M53.3,85.6v5c4.9,0,9.4,2.2,12.4,5.9c5.5,6.9,4.5,16.9-2.4,22.5c-2.9,2.3-6.3,3.6-10,3.6
			c-4.9,0-9.4-2.2-12.4-5.9c-5.5-6.9-4.5-16.9,2.4-22.5c2.9-2.3,6.3-3.6,10-3.6L53.3,85.6 M53.3,85.6c-4.6,0-9.3,1.5-13.2,4.7
			c-9,7.3-10.4,20.5-3.1,29.5c4.1,5.1,10.2,7.8,16.3,7.8c4.6,0,9.3-1.5,13.2-4.7c9-7.3,10.4-20.5,3.1-29.5
			C65.5,88.2,59.4,85.6,53.3,85.6L53.3,85.6z"/>
		<path class="positions2" d="M72.1,104.9L69,101l6.1-4.9l-6.7-8.3l-6.1,4.9l-3.1-3.9l8-6.5c0.5-0.4,1.2-0.6,1.8-0.5
			c0.7,0.1,1.3,0.4,1.7,0.9l9.8,12.2c0.9,1.1,0.7,2.6-0.4,3.5L72.1,104.9z"/>
		<path class="positions2" d="M53.3,120.7c-4.1,0-8.2-1.8-11.1-5.3c-4.9-6.1-4-15,2.1-20c2.9-2.4,6.6-3.5,10.4-3.1c3.8,0.4,7.2,2.2,9.5,5.2
			c2.4,2.9,3.5,6.6,3.1,10.4c-0.4,3.8-2.2,7.2-5.2,9.5l0,0C59.6,119.7,56.5,120.7,53.3,120.7z M53.3,97.4c-2.1,0-4.1,0.7-5.8,2
			c-3.9,3.2-4.6,9-1.4,12.9c3.2,3.9,9,4.6,12.9,1.4l0,0c1.9-1.5,3.1-3.7,3.4-6.2s-0.5-4.8-2-6.7c-1.5-1.9-3.7-3.1-6.2-3.4
			C53.9,97.4,53.6,97.4,53.3,97.4z"/>
		<path class="positions2" d="M111.8,42.5c4.8,0,9.3,2.1,12.4,5.8c5.6,6.8,4.6,16.9-2.2,22.5c-2.9,2.4-6.4,3.6-10.1,3.6
			c-4.8,0-9.3-2.1-12.4-5.8c-5.6-6.8-4.6-16.9,2.2-22.5C104.5,43.7,108,42.5,111.8,42.5 M111.8,37.5c-4.7,0-9.4,1.6-13.3,4.8
			c-9,7.4-10.2,20.6-2.9,29.5c4.2,5,10.2,7.7,16.2,7.7c4.7,0,9.4-1.6,13.3-4.8c9-7.4,10.2-20.6,2.9-29.5
			C123.8,40.1,117.8,37.5,111.8,37.5L111.8,37.5z"/>
		<path class="positions2" d="M96.8,83.7c-0.7,0-1.4-0.3-1.9-0.9L85,70.7c-0.4-0.5-0.6-1.2-0.6-1.8s0.4-1.3,0.9-1.7l8-6.5l3.2,3.9l-6,4.9
			l6.8,8.2l6-4.9l3.2,3.9l-8,6.5C98,83.5,97.4,83.7,96.8,83.7z"/>
		<path class="positions2" d="M111.8,72.7c-0.5,0-0.9,0-1.4-0.1c-3.8-0.4-7.2-2.2-9.6-5.1c-5-6-4.1-15,2-20c6-5,15-4.1,20,1.9
			c5,6.1,4.1,15-2,20l0,0C118.2,71.5,115.1,72.7,111.8,72.7z M111.8,49.3c-2.1,0-4.1,0.7-5.8,2.1c-3.9,3.2-4.5,9-1.3,12.9
			c1.6,1.9,3.8,3.1,6.2,3.3c2.4,0.2,4.8-0.5,6.7-2.1l0,0c3.9-3.2,4.5-9,1.3-12.9C117.1,50.4,114.4,49.3,111.8,49.3z"/>
		<path class="positions2" d="M79.1,88.6c-0.7,0-1.4-0.3-1.9-0.9c-0.9-1.1-0.7-2.6,0.3-3.5l7.1-5.9c1.1-0.9,2.6-0.7,3.5,0.3
			s0.7,2.6-0.3,3.5l-7.1,5.9C80.2,88.4,79.6,88.6,79.1,88.6z"/>
</g>
</svg>
