<?xml version="1.0" encoding="utf-8"?>
<!-- Generator: Adobe Illustrator 21.1.0, SVG Export Plug-In . SVG Version: 6.00 Build 0)  -->
<svg version="1.1" id="Layer_3" xmlns="http://www.w3.org/2000/svg" xmlns:xlink="http://www.w3.org/1999/xlink" x="0px" y="0px"
	 viewBox="0 0 165 165" style="enable-background:new 0 0 165 165;" xml:space="preserve">
<g>
	<circle class="positions0" cx="83" cy="82.8" r="82.5"/>
</g>
<g>
	<circle class="positions1" cx="115.4" cy="63.2" r="11.5"/>
</g>
<g>
	<path class="positions2" d="M130.2,82.6c3.6,0,6.5,2.9,6.5,6.5c0,3.6-2.9,6.5-6.5,6.5c-3.6,0-6.5-2.9-6.5-6.5
		C123.7,85.6,126.6,82.6,130.2,82.6 M130.2,77.6c-6.4,0-11.5,5.2-11.5,11.5c0,6.4,5.1,11.5,11.5,11.5c6.4,0,11.5-5.2,11.5-11.5
		C141.7,82.8,136.6,77.6,130.2,77.6L130.2,77.6z"/>
</g>
<g>
	<path class="positions2" d="M69,94.5H22.2c-1.4,0-2.5-1.1-2.5-2.5s1.1-2.5,2.5-2.5H68l25.8-24c1-0.9,2.6-0.9,3.5,0.1
		c0.9,1,0.9,2.6-0.1,3.5L70.7,93.8C70.2,94.2,69.6,94.5,69,94.5z"/>
</g>
<g>
	<path class="positions2" d="M30.1,100.8c-0.6,0-1.2-0.2-1.6-0.6c-1-0.9-1.2-2.5-0.3-3.5l20.1-23.3c0.4-0.5,1.1-0.8,1.7-0.9
		c0.7,0,1.3,0.2,1.8,0.6l25,22.5h35.7c1.4,0,2.5,1.1,2.5,2.5s-1.1,2.5-2.5,2.5H75.9c-0.6,0-1.2-0.2-1.7-0.6L50.4,78.6L32,100
		C31.6,100.5,30.9,100.8,30.1,100.8z"/>
</g>
</svg>
