<?xml version="1.0" encoding="utf-8"?>
<!-- Generator: Adobe Illustrator 21.1.0, SVG Export Plug-In . SVG Version: 6.00 Build 0)  -->
<svg version="1.1" id="Layer_3" xmlns="http://www.w3.org/2000/svg" xmlns:xlink="http://www.w3.org/1999/xlink" x="0px" y="0px"
	 viewBox="0 0 165 165" style="enable-background:new 0 0 165 165;" xml:space="preserve">
<g>
	<circle class="positions0" cx="82.5" cy="82.5" r="82.5"/>
</g>
<g>
	<path class="positions1" d="M74.2,135.6c-1.4,0-2.5-1.1-2.5-2.5V58.4c0-1.4,1.1-2.5,2.5-2.5s2.5,1.1,2.5,2.5v74.7
		C76.7,134.5,75.6,135.6,74.2,135.6z"/>
</g>
<g>
	<path class="positions2" d="M52.5,135.7c-1.4,0-2.5-1.1-2.5-2.5V84.6c0-1.4,1.1-2.5,2.5-2.5h49.4c1.4,0,2.5,1.1,2.5,2.5s-1.1,2.5-2.5,2.5
		H55v46C55,134.6,53.9,135.7,52.5,135.7z"/>
</g>
<g>
	<circle class="positions1" cx="75.1" cy="39.3" r="11.5"/>
</g>
<g>
	<path class="positions1" d="M47.1,88.7c-0.6,0-1.3-0.2-1.7-0.7c-1-1-1-2.5,0-3.5l27.1-27.8c1-1,2.5-1,3.5,0c1,1,1,2.5,0,3.5L48.9,87.9
		C48.4,88.4,47.7,88.7,47.1,88.7z"/>
</g>
<g>
	<path class="positions2" d="M119.5,69.3c3.6,0,6.5,2.9,6.5,6.5c0,3.6-2.9,6.5-6.5,6.5c-3.6,0-6.5-2.9-6.5-6.5
		C113,72.2,115.9,69.3,119.5,69.3 M119.5,64.3c-6.4,0-11.5,5.2-11.5,11.5c0,6.4,5.1,11.5,11.5,11.5c6.4,0,11.5-5.2,11.5-11.5
		C131,69.4,125.8,64.3,119.5,64.3L119.5,64.3z"/>
</g>
</svg>
