<?xml version="1.0" encoding="utf-8"?>
<!-- Generator: Adobe Illustrator 21.1.0, SVG Export Plug-In . SVG Version: 6.00 Build 0)  -->
<svg version="1.1" id="Layer_3" xmlns="http://www.w3.org/2000/svg" xmlns:xlink="http://www.w3.org/1999/xlink" x="0px" y="0px"
	 viewBox="0 0 165 165" style="enable-background:new 0 0 165 165;" xml:space="preserve">
<g>
	<circle class="positions0" cx="82.6" cy="82.5" r="82.5"/>
</g>
<g>
	<path class="positions1" d="M95.2,36.2c-3.1-5.1-7.6-8-12.7-8c-5,0-9.6,2.8-12.7,8c-3.1,5.1-4.7,12.2-4.7,20.5c0,6.2,3.4,12,8.8,15.1
		c1.4,0.8,2.3,2.3,2.3,4v6.8c-1.1,0.8-1.8,2.2-1.8,3.6v42.5c0,4.5,3.7,8.2,8.2,8.2c4.5,0,8.2-3.7,8.2-8.2V86.2
		c0-1.4-0.7-2.8-1.8-3.6v-6.8c0-1.7,0.9-3.3,2.3-4c5.4-3.1,8.8-8.9,8.8-15.1C100,48.3,98.3,41.2,95.2,36.2z M85.5,89.1L85.5,89.1
		l0,5.3h0v34.3c0,1.6-1.3,2.9-2.9,2.9c-1.6,0-2.9-1.3-2.9-2.9V87h5.8V89.1z M88.5,67.2c-3,1.7-4.9,5-4.9,8.6v5.9h-2.1v-5.9
		c0-3.6-1.9-6.9-4.9-8.6c-3.8-2.2-6.2-6.2-6.2-10.5c0-7.4,1.4-13.5,3.9-17.8c2.2-3.6,5-5.5,8.2-5.5c3.2,0,6,1.9,8.2,5.5
		c2.6,4.2,3.9,10.4,3.9,17.8C94.7,61,92.3,65.1,88.5,67.2z"/>
</g>
</svg>
