<?xml version="1.0" encoding="utf-8"?>
<!-- Generator: Adobe Illustrator 21.1.0, SVG Export Plug-In . SVG Version: 6.00 Build 0)  -->
<svg version="1.1" id="Layer_3" xmlns="http://www.w3.org/2000/svg" xmlns:xlink="http://www.w3.org/1999/xlink" x="0px" y="0px"
	 viewBox="0 0 70 70" style="enable-background:new 0 0 70 70;" xml:space="preserve">
<style type="text/css">
	.st0{fill:#FFFFFF;}
</style>
<path class="st0" d="M62.7,7.8h-4.9V3.2c0-1.7-1.4-3.2-3.2-3.2H52c-1.7,0-3.2,1.4-3.2,3.2v4.7H21V3.3c0-1.7-1.4-3.2-3.2-3.2h-2.6
	c-1.7,0-3.2,1.4-3.2,3.2v4.6H7.3c-1.6,0-3,1.3-3,3v56c0,0.7,0.3,1.4,0.7,1.9l0,0l0,0c0.5,0.6,1.3,1,2.2,1h55.5c1.6,0,3-1.3,3-3v-56
	C65.7,9.2,64.4,7.8,62.7,7.8z M50.9,3.2C50.9,2.5,51.4,2,52,2h2.6c0.6,0,1.2,0.5,1.2,1.2v12.7c0,0.6-0.5,1.2-1.2,1.2H52
	c-0.6,0-1.2-0.5-1.2-1.2V3.2z M14.1,9.8v-2V3.3c0-0.6,0.5-1.2,1.2-1.2h2.6c0.6,0,1.2,0.5,1.2,1.2v4.6v2V16c0,0.6-0.5,1.2-1.2,1.2
	h-2.6c-0.6,0-1.2-0.5-1.2-1.2V9.8z M19,67.8H7.3c-0.5,0-1-0.4-1-1v-12H19V67.8z M19,52.7H6.3v-13H19V52.7z M19,37.7H6.3v-13H19V37.7
	z M34,67.8H21.2v-13H34V67.8z M34,52.7H21.2v-13H34V52.7z M34,37.7H21.2v-13H34V37.7z M48.8,67.8H36.1v-13h12.8V67.8z M48.8,52.7
	H36.1v-13h12.8V52.7z M48.8,37.7H36.1v-13h12.8V37.7z M63.7,66.8c0,0.5-0.4,1-1,1H50.9v-13h12.9V66.8z M63.7,52.7H50.9v-13h12.9
	V52.7z M63.7,37.7H50.9v-13h12.9V37.7z M63.7,22.7H6.3V11.1c0,0,0.1,0,0.1-0.1v-0.2c0,0,0-0.1-0.1-0.1v0c0-0.5,0.4-1,1-1h4.8V16
	c0,1.7,1.4,3.2,3.2,3.2h2.6c1.7,0,3.2-1.4,3.2-3.2V9.8h27.8v6c0,1.7,1.4,3.2,3.2,3.2h2.6c1.7,0,3.2-1.4,3.2-3.2v-6h4.9
	c0.5,0,1,0.4,1,1V22.7z"/>
</svg>
