<?xml version="1.0" encoding="utf-8"?>
<!-- Generator: Adobe Illustrator 21.1.0, SVG Export Plug-In . SVG Version: 6.00 Build 0)  -->
<svg version="1.1" id="Layer_1" xmlns="http://www.w3.org/2000/svg" xmlns:xlink="http://www.w3.org/1999/xlink" x="0px" y="0px"
	 viewBox="0 0 69.8 15.9" style="enable-background:new 0 0 69.8 15.9;" xml:space="preserve">
<style type="text/css">
	.st0{fill:#FFFFFF;}
</style>
<g>
	<path d="M34.9,1c3.8,0,7,3.1,7,7s-3.1,7-7,7s-7-3.1-7-7S31.1,1,34.9,1 M34.9,0c-4.4,0-8,3.6-8,8s3.6,8,8,8
		c4.4,0,8-3.6,8-8S39.3,0,34.9,0L34.9,0z"/>
</g>
<g>
	<path d="M8,1c3.8,0,7,3.1,7,7s-3.1,7-7,7s-7-3.1-7-7S4.1,1,8,1 M8,0C3.6,0,0,3.6,0,8s3.6,8,8,8s8-3.6,8-8S12.4,0,8,0
		L8,0z"/>
</g>
<g>
	<path d="M61.9,1c3.8,0,7,3.1,7,7s-3.1,7-7,7s-7-3.1-7-7S58,1,61.9,1 M61.9,0c-4.4,0-8,3.6-8,8s3.6,8,8,8
		c4.4,0,8-3.6,8-8S66.3,0,61.9,0L61.9,0z"/>
</g>
</svg>
