<?xml version="1.0" encoding="utf-8"?>
<!-- Generator: Adobe Illustrator 21.1.0, SVG Export Plug-In . SVG Version: 6.00 Build 0)  -->
<svg version="1.1" id="Layer_2" xmlns="http://www.w3.org/2000/svg" xmlns:xlink="http://www.w3.org/1999/xlink" x="0px" y="0px"
	 viewBox="0 0 70 70" style="enable-background:new 0 0 70 70;" xml:space="preserve">
<style type="text/css">
	.st0{fill:#FFFFFF;}
	.st1{fill:none;stroke:#1D4BCF;stroke-width:2;stroke-miterlimit:10;}
</style>
<g>
	<path d="M43.5,2.2C43.5,2.2,43.5,2.2,43.5,2.2l0.3,7.1c0,0.8,0.5,1.5,1.2,1.8c0.2,0.1,0.5,0.2,0.8,0.2
		c0.5,0,1-0.2,1.4-0.5l5.2-4.8c0,0,0,0,0,0c0,0,0,0,0,0c0,0,0,0,0,0c0,0,0,0,0,0l11.8,11.8c0,0,0,0-0.1,0.1L59.4,23
		c-0.5,0.6-0.7,1.4-0.4,2.1c0.3,0.7,1,1.2,1.8,1.2l7.1,0.3c0,0,0,0,0,0v16.7c0,0-0.1,0-0.1,0l-7.1,0.3c-0.8,0-1.5,0.5-1.8,1.2
		c-0.3,0.7-0.2,1.5,0.4,2.1l4.8,5.2c0,0,0,0,0,0c0,0,0,0,0,0L52.4,64.1c0,0,0,0-0.1-0.1l-5.2-4.8c-0.4-0.3-0.9-0.5-1.4-0.5
		c-0.3,0-0.5,0-0.8,0.2c-0.7,0.3-1.2,1-1.2,1.8l-0.3,7.1c0,0,0,0,0,0H26.7c0,0,0-0.1,0-0.1l-0.3-7.1c0-0.8-0.5-1.5-1.2-1.8
		c-0.2-0.1-0.5-0.2-0.8-0.2c-0.5,0-1,0.2-1.4,0.5l-5.2,4.8c0,0,0,0,0,0L6,52.3c0,0,0,0,0.1-0.1l4.8-5.2c0.5-0.6,0.7-1.4,0.4-2.1
		c-0.3-0.7-1-1.2-1.8-1.2l-7.1-0.3c0,0,0,0,0,0V26.6c0,0,0.1,0,0.1,0l7.1-0.3c0.8,0,1.5-0.5,1.8-1.2c0.3-0.7,0.2-1.5-0.4-2.1L6,17.7
		c0,0,0,0,0,0c0,0,0,0,0,0L17.8,5.9c0,0,0,0,0.1,0.1l5.2,4.8c0.4,0.3,0.9,0.5,1.4,0.5c0.3,0,0.5,0,0.8-0.2c0.7-0.3,1.2-1,1.2-1.8
		l0.3-7.1c0,0,0,0,0,0H43.5 M43.5,0.2H26.7c-1.1,0-2,0.9-2,2l-0.3,7.1l-5.2-4.8c-0.4-0.4-0.9-0.6-1.4-0.6c-0.5,0-1,0.2-1.4,0.6
		L4.6,16.3c-0.8,0.8-0.8,2,0,2.8l4.8,5.2l-7.1,0.3c-1.1,0-2,0.9-2,2v16.7c0,1.1,0.9,2,2,2c0,0,0,0,0,0l7.1,0.3l-4.8,5.2
		c-0.8,0.8-0.8,2,0,2.8l11.8,11.8c0.4,0.4,0.9,0.6,1.4,0.6c0.5,0,1-0.2,1.4-0.6l5.2-4.8l0.3,7.1c0,1.1,0.9,2,2,2h16.7
		c1.1,0,2-0.9,2-2l0.3-7.1l5.2,4.8c0.4,0.4,0.9,0.6,1.4,0.6c0.5,0,1-0.2,1.4-0.6l11.8-11.8c0.8-0.8,0.8-2,0-2.8l-4.8-5.2l7.1-0.3
		c1.1,0,2-0.9,2-2V26.6c0-1.1-0.9-2-2-2c0,0,0,0,0,0l-7.1-0.3l4.8-5.2c0.8-0.8,0.8-2,0-2.8L53.8,4.5c-0.4-0.4-0.9-0.6-1.4-0.6
		c-0.5,0-1,0.2-1.4,0.5l-5.2,4.8l-0.3-7.1C45.5,1.1,44.6,0.2,43.5,0.2L43.5,0.2z"/>
</g>
<circle class="st1" cx="34.9" cy="34.7" r="12.9"/>
</svg>
