<?xml version="1.0" encoding="utf-8"?>
<!-- Generator: Adobe Illustrator 21.1.0, SVG Export Plug-In . SVG Version: 6.00 Build 0)  -->
<svg version="1.1" id="Layer_3" xmlns="http://www.w3.org/2000/svg" xmlns:xlink="http://www.w3.org/1999/xlink" x="0px" y="0px"
	 viewBox="0 0 165 165" style="enable-background:new 0 0 165 165;" xml:space="preserve">
<style type="text/css">
	.st0{fill:#F8F8F8;}
	.st1{fill:#0434C0;}
	.st2{fill:#07FFDE;}
	.st3{fill:#FFFFFF;}
	.st4{fill:#00A651;}
	.st5{fill:none;stroke:#0434C0;stroke-width:3;stroke-linecap:round;stroke-linejoin:round;stroke-miterlimit:10;}
	.st6{fill-rule:evenodd;clip-rule:evenodd;}
	.st7{fill-rule:evenodd;clip-rule:evenodd;fill:#FFFFFF;}
	
		.st8{fill-rule:evenodd;clip-rule:evenodd;fill:none;stroke:#07FFDE;stroke-width:3;stroke-linecap:round;stroke-linejoin:round;stroke-miterlimit:10;}
</style>
<g>
	<circle class="st0" cx="82.7" cy="82.6" r="82.5"/>
</g>
<g>
	<path class="st1" d="M38.8,102.8c-0.6,0-1.1-0.2-1.6-0.6L16,84.9c-1.1-0.9-1.2-2.4-0.4-3.5c0.9-1.1,2.4-1.2,3.5-0.4l18.5,15.1
		l13.3-37c0.4-1,1.3-1.7,2.4-1.7c0,0,0,0,0,0l37.1,0.1c1.4,0,2.5,1.1,2.5,2.5c0,1.4-1.1,2.5-2.5,2.5c0,0,0,0,0,0l-35.3-0.1
		l-13.9,38.7c-0.3,0.8-0.9,1.3-1.7,1.6C39.2,102.8,39,102.8,38.8,102.8z"/>
</g>
<g>
	<path class="st2" d="M112.1,103C112.1,103,112.1,103,112.1,103L75,102.9c-1.4,0-2.5-1.1-2.5-2.5c0-1.4,1.1-2.5,2.5-2.5c0,0,0,0,0,0
		l35.3,0.1l13.9-38.7c0.3-0.8,0.9-1.3,1.7-1.6c0.8-0.2,1.6,0,2.2,0.5l21.2,17.3c1.1,0.9,1.2,2.4,0.4,3.5c-0.9,1.1-2.4,1.2-3.5,0.4
		l-18.5-15.1l-13.3,37C114.1,102.4,113.2,103,112.1,103z"/>
</g>
<g>
	<circle class="st1" cx="97.1" cy="80.2" r="11.5"/>
</g>
<g>
	<circle class="st2" cx="68.1" cy="80.2" r="11.5"/>
</g>
</svg>
