<?xml version="1.0" encoding="utf-8"?>
<!-- Generator: Adobe Illustrator 21.1.0, SVG Export Plug-In . SVG Version: 6.00 Build 0)  -->
<svg version="1.1" id="Layer_3" xmlns="http://www.w3.org/2000/svg" xmlns:xlink="http://www.w3.org/1999/xlink" x="0px" y="0px"
	 viewBox="0 0 165 165" style="enable-background:new 0 0 165 165;" xml:space="preserve">
<style type="text/css">
	.st0{fill:#F8F8F8;}
	.st1{fill:#0434C0;}
	.st2{fill:#07FFDE;}
	.st3{fill:#FFFFFF;}
	.st4{fill:#00A651;}
	.st5{fill:none;stroke:#0434C0;stroke-width:3;stroke-linecap:round;stroke-linejoin:round;stroke-miterlimit:10;}
	.st6{fill-rule:evenodd;clip-rule:evenodd;}
	.st7{fill-rule:evenodd;clip-rule:evenodd;fill:#FFFFFF;}
	
		.st8{fill-rule:evenodd;clip-rule:evenodd;fill:none;stroke:#07FFDE;stroke-width:3;stroke-linecap:round;stroke-linejoin:round;stroke-miterlimit:10;}
</style>
<g>
	<circle class="st0" cx="82.5" cy="82.5" r="82.5"/>
</g>
<g>
	<path class="st2" d="M61.1,84C47,84,35.6,72.6,35.6,58.5c0-1.4,1.1-2.5,2.5-2.5s2.5,1.1,2.5,2.5c0,11.3,9.2,20.5,20.5,20.5
		s20.5-9.2,20.5-20.5c0-1.4,1.1-2.5,2.5-2.5s2.5,1.1,2.5,2.5C86.6,72.6,75.2,84,61.1,84z"/>
</g>
<g>
	<path class="st2" d="M104.8,84c-14.1,0-25.5-11.5-25.5-25.5c0-1.4,1.1-2.5,2.5-2.5s2.5,1.1,2.5,2.5c0,11.3,9.2,20.5,20.5,20.5
		s20.5-9.2,20.5-20.5c0-1.4,1.1-2.5,2.5-2.5s2.5,1.1,2.5,2.5C130.3,72.5,118.8,84,104.8,84z"/>
</g>
<g>
	<path class="st2" d="M93.1,124.7c-1.2,0-2.3-0.9-2.5-2.1L80.2,58.9c-0.2-1.4,0.7-2.6,2.1-2.9c1.4-0.2,2.6,0.7,2.9,2.1l10.4,63.8
		c0.2,1.4-0.7,2.6-2.1,2.9C93.3,124.7,93.2,124.7,93.1,124.7z"/>
</g>
<g>
	<path class="st2" d="M72.2,124.7c-0.1,0-0.3,0-0.4,0c-1.4-0.2-2.3-1.5-2.1-2.9L80.2,58c0.2-1.4,1.5-2.3,2.9-2.1
		c1.4,0.2,2.3,1.5,2.1,2.9l-10.4,63.8C74.5,123.9,73.4,124.7,72.2,124.7z"/>
</g>
<g>
	<path class="st2" d="M48.3,124.5c-1.2,0-2.3-0.9-2.5-2.1l-9.7-58.3c-0.5-3.8-0.8-7.6-0.8-11.4v-9.9c0-1.4,1.1-2.5,2.5-2.5
		s2.5,1.1,2.5,2.5v9.9c0,3.5,0.3,7.1,0.7,10.6l9.6,58.3c0.2,1.4-0.7,2.6-2.1,2.9C48.5,124.5,48.4,124.5,48.3,124.5z"/>
</g>
<g>
	<path class="st2" d="M117.5,124.7c-0.1,0-0.3,0-0.4,0c-1.4-0.2-2.3-1.5-2.1-2.9l9.7-58.3c0.5-3.4,0.7-7,0.7-10.5v-9.9
		c0-1.4,1.1-2.5,2.5-2.5s2.5,1.1,2.5,2.5v9.9c0,3.8-0.3,7.6-0.8,11.3l-9.7,58.4C119.8,123.9,118.7,124.7,117.5,124.7z"/>
</g>
<g>
	<rect x="74" y="51.7" class="st0" width="18.2" height="16"/>
</g>
<g>
	<path class="st1" d="M93.6,65.6c-0.1-0.3-0.4-0.6-0.8-0.6l0,0l-6.7,0l-2.9-7.6c-0.1-0.3-0.4-0.5-0.8-0.5c0,0,0,0,0,0
		c-0.3,0-0.7,0.2-0.8,0.6l-2.3,7.6l-8.1,0c-0.4,0-0.7,0.2-0.8,0.6c-0.1,0.3,0,0.7,0.3,0.9l6.7,4.3l-2.2,7c-0.1,0.3,0,0.7,0.3,0.9
		c0.3,0.2,0.7,0.2,1,0l6.1-4.5l7,4.5c0.1,0.1,0.3,0.1,0.4,0.1c0.2,0,0.4-0.1,0.5-0.2c0.3-0.2,0.4-0.6,0.2-0.9L88,70.3l5.2-3.8
		C93.5,66.3,93.7,65.9,93.6,65.6z"/>
</g>
</svg>
