<?xml version="1.0" encoding="utf-8"?>
<!-- Generator: Adobe Illustrator 21.1.0, SVG Export Plug-In . SVG Version: 6.00 Build 0)  -->
<svg version="1.1" id="Layer_3" xmlns="http://www.w3.org/2000/svg" xmlns:xlink="http://www.w3.org/1999/xlink" x="0px" y="0px"
	 viewBox="0 0 165 165" style="enable-background:new 0 0 165 165;" xml:space="preserve">
<style type="text/css">

	.st1{fill:#0434C0;}
	.st2{fill:#07FFDE;}
	.st3{fill:#FFFFFF;}
	.st4{fill:#00A651;}
	.st5{fill:none;stroke:#0434C0;stroke-width:3;stroke-linecap:round;stroke-linejoin:round;stroke-miterlimit:10;}
	.st6{fill-rule:evenodd;clip-rule:evenodd;}
	.st7{fill-rule:evenodd;clip-rule:evenodd;fill:#FFFFFF;}
	
		.st8{fill-rule:evenodd;clip-rule:evenodd;fill:none;stroke:#07FFDE;stroke-width:3;stroke-linecap:round;stroke-linejoin:round;stroke-miterlimit:10;}
</style>
<g>
	<circle cx="82.5" cy="82.5" r="82.5"/>
</g>
<g>
	<circle class="st2" cx="66.3" cy="77.7" r="8.3"/>
</g>
<g>
	<circle class="st2" cx="97.8" cy="77.7" r="8.3"/>
</g>
<g>
	<path class="st2" d="M73.7,97c0,4.6,3.7,14.7,8.3,14.7c4.6,0,8.3-10,8.3-14.7c0-4.6-3.7-8.3-8.3-8.3C77.4,88.7,73.7,92.4,73.7,97z"
		/>
</g>
<g>
	<path class="st2" d="M82,122.1c-1.4,0-2.5-1.1-2.5-2.5V97c0-1.4,1.1-2.5,2.5-2.5s2.5,1.1,2.5,2.5v22.6
		C84.5,121,83.4,122.1,82,122.1z"/>
</g>
<g>
	<path class="st2" d="M36.9,106c-3.9,0-7.4-2.5-8.6-6.4c-1.5-5-2.3-10.3-2.3-15.5C26,63,38.3,44.1,58,34.7c4.5-2.1,9.9-0.2,12,4.3
		s0.2,9.9-4.3,12C52.3,57.3,44,70,44,84.1c0,3.5,0.5,7,1.5,10.3c1.5,4.8-1.2,9.8-6,11.2C38.7,105.9,37.8,106,36.9,106z"/>
</g>
<g>
	<path class="st2" d="M128.1,106c-0.9,0-1.8-0.1-2.6-0.4c-4.8-1.5-7.4-6.5-6-11.2c1-3.3,1.5-6.8,1.5-10.3c0-14.1-8.3-26.8-21.6-33.1
		c-4.5-2.1-6.4-7.5-4.3-12c2.1-4.5,7.5-6.4,12-4.3C126.7,44.1,139,63,139,84.1c0,5.3-0.8,10.5-2.3,15.5
		C135.5,103.5,131.9,106,128.1,106z"/>
</g>
<g>
	<path class="st2" d="M69.6,124.6c-5.1,0-9.8-1-12.7-2.6c-1.2-0.7-1.6-2.2-0.9-3.4c0.7-1.2,2.2-1.6,3.4-0.9c2.2,1.3,6.5,2,11,1.9
		c4.2-0.1,8.1-0.9,10.4-2.1c1.2-0.7,2.7-0.2,3.4,1c0.7,1.2,0.2,2.7-1,3.4c-3,1.6-7.7,2.6-12.7,2.7C70.2,124.6,69.9,124.6,69.6,124.6
		z"/>
</g>
<g>
	<path class="st2" d="M94.2,124.6c-5.1,0-9.8-1-12.7-2.6c-1.2-0.7-1.6-2.2-0.9-3.4c0.7-1.2,2.2-1.6,3.4-0.9c2.2,1.3,6.5,2,11,1.9
		c4.2-0.1,8.1-0.9,10.4-2.1c1.2-0.7,2.7-0.2,3.4,1c0.7,1.2,0.2,2.7-1,3.4c-3,1.6-7.7,2.6-12.7,2.7C94.8,124.6,94.5,124.6,94.2,124.6
		z"/>
</g>
</svg>
