<?xml version="1.0" encoding="utf-8"?>
<!-- Generator: Adobe Illustrator 21.1.0, SVG Export Plug-In . SVG Version: 6.00 Build 0)  -->
<svg version="1.1" id="Layer_3" xmlns="http://www.w3.org/2000/svg" xmlns:xlink="http://www.w3.org/1999/xlink" x="0px" y="0px"
	 viewBox="0 0 165 165" style="enable-background:new 0 0 165 165;" xml:space="preserve">
<style type="text/css">
	.st0{fill:#F8F8F8;}
	.st1{fill:#0434C0;}
	.st2{fill:#07FFDE;}
	.st3{fill:#FFFFFF;}
	.st4{fill:#00A651;}
	.st5{fill:none;stroke:#0434C0;stroke-width:3;stroke-linecap:round;stroke-linejoin:round;stroke-miterlimit:10;}
	.st6{fill-rule:evenodd;clip-rule:evenodd;}
	.st7{fill-rule:evenodd;clip-rule:evenodd;fill:#FFFFFF;}
	
		.st8{fill-rule:evenodd;clip-rule:evenodd;fill:none;stroke:#07FFDE;stroke-width:3;stroke-linecap:round;stroke-linejoin:round;stroke-miterlimit:10;}
</style>
<g>
	<g>
		<path class="st0" d="M82.5,162.6c-44.1,0-80-35.9-80-80s35.9-80,80-80s80,35.9,80,80S126.6,162.6,82.5,162.6z"/>
	</g>
	<g>
		<g>
			<path class="st1" d="M82.5,5.1c42.7,0,77.5,34.8,77.5,77.5s-34.8,77.5-77.5,77.5S5,125.3,5,82.6S39.8,5.1,82.5,5.1 M82.5,0.1
				C37,0.1,0,37,0,82.6s36.9,82.5,82.5,82.5S165,128.1,165,82.6S128.1,0.1,82.5,0.1L82.5,0.1z"/>
		</g>
	</g>
</g>
<g>
	<g>
		<path class="st2" d="M88.1,147.9c-13,0-22.5-8.3-28.1-15.3c-0.4-0.5-0.8-1-1.2-1.5c-2-2.5-4.1-5-5.6-7.7c-0.1-0.1-0.2-0.2-0.3-0.4
			L36.5,99.3c-3-4.4-1.9-10.5,2.6-13.5c2.2-1.5,4.8-2,7.4-1.6c2.6,0.5,4.8,1.9,6.3,4.1l4.8,7c0-10.9-0.2-31.1-0.3-45.8
			c0-4.9,4-9,8.9-9c4.9,0,8.9,4,8.9,8.9v16.4c1.6-2.5,4.4-4.3,7.6-4.3c4.9,0,8.9,4,8.9,8.9v0.1c1.6-2.6,4.4-4.3,7.6-4.3
			c4.9,0,8.9,4,8.9,8.9v5.8c1.5-2.3,4.3-3.7,7.6-3.7c4.9,0,8.9,4,8.9,8.9v26.9C124.7,132.4,108.3,147.9,88.1,147.9z M56.9,120.1
			c0.1,0.1,0.2,0.2,0.3,0.3c0.1,0.1,0.2,0.2,0.2,0.4c1.3,2.4,3.3,4.8,5.2,7.1c0.4,0.5,0.8,1,1.3,1.5c5,6.1,13.2,13.4,24.2,13.4
			c17.5,0,31.7-13.3,31.7-29.6V86.4c0-2.2-1.8-3.9-3.9-3.9c-1.8,0-3.9,0.8-3.9,3.2l0,2.2c0,0.1,0,0.1,0,0.2c-0.2,2.3-2.1,4-4.3,4
			c-2.2,0-4-1.6-4.3-3.8c0-0.1,0-0.2,0-0.3V75.4c0-2.2-1.8-3.9-3.9-3.9s-3.9,1.8-3.9,3.9v12.7c0,0.2,0,0.4-0.1,0.5
			c-0.5,2-2.2,3.4-4.2,3.4c-2.4,0-4.4-2-4.4-4.4V70.6c0-2.2-1.8-3.9-3.9-3.9c-2.2,0-3.9,1.8-3.9,3.9v17.5c0,0.2,0,0.4-0.1,0.5
			c-0.5,2-2.2,3.4-4.2,3.4c-2.4,0-4.4-2-4.4-4.4V49.5c0-2.2-1.8-3.9-3.9-3.9c-2.2,0-3.9,1.8-3.9,3.9c0,0,0.1,13.4,0.2,26.9
			c0,6.7,0.1,13.4,0.1,18.5c0,2.5,0,4.6,0,6.1c0,2.9,0,4.4-2.2,4.8c-1,0.2-1.9-0.3-2.5-1.1l-9.3-13.5c-0.7-1.1-1.8-1.8-3.1-2
			c-1.3-0.2-2.6,0-3.6,0.8c-2.2,1.5-2.8,4.5-1.3,6.6L56.9,120.1z"/>
	</g>
	<g>
		<path class="st1" d="M76.6,26.2c-0.1-0.3-0.4-0.6-0.8-0.6l0,0l-6.7,0l-2.9-7.6c-0.1-0.3-0.4-0.5-0.8-0.5c0,0,0,0,0,0
			c-0.3,0-0.7,0.2-0.8,0.6l-2.3,7.6l-8.1,0c-0.4,0-0.7,0.2-0.8,0.6c-0.1,0.3,0,0.7,0.3,0.9l6.7,4.3l-2.2,7c-0.1,0.3,0,0.7,0.3,0.9
			c0.3,0.2,0.7,0.2,1,0l6.1-4.5l7,4.5c0.1,0.1,0.3,0.1,0.4,0.1c0.2,0,0.4-0.1,0.5-0.2c0.3-0.2,0.4-0.6,0.2-0.9L71,31l5.2-3.8
			C76.5,26.9,76.7,26.6,76.6,26.2z"/>
	</g>
</g>
</svg>
