<?xml version="1.0" encoding="utf-8"?>
<!-- Generator: Adobe Illustrator 21.1.0, SVG Export Plug-In . SVG Version: 6.00 Build 0)  -->
<svg version="1.1" id="Layer_3" xmlns="http://www.w3.org/2000/svg" xmlns:xlink="http://www.w3.org/1999/xlink" x="0px" y="0px"
	 viewBox="0 0 165 165" style="enable-background:new 0 0 165 165;" xml:space="preserve">
<style type="text/css">
	.st0{fill:#F8F8F8;}
	.st1{fill:#0434C0;}
	.st2{fill:#07FFDE;}
	.st3{fill:#FFFFFF;}
	.st4{fill:#00A651;}
	.st5{fill:none;stroke:#0434C0;stroke-width:3;stroke-linecap:round;stroke-linejoin:round;stroke-miterlimit:10;}
	.st6{fill-rule:evenodd;clip-rule:evenodd;}
	.st7{fill-rule:evenodd;clip-rule:evenodd;fill:#FFFFFF;}
	
		.st8{fill-rule:evenodd;clip-rule:evenodd;fill:none;stroke:#07FFDE;stroke-width:3;stroke-linecap:round;stroke-linejoin:round;stroke-miterlimit:10;}
</style>
<g>
	<g>
		<path class="st0" d="M82.5,162.6c-44.1,0-80-35.9-80-80s35.9-80,80-80s80,35.9,80,80S126.6,162.6,82.5,162.6z"/>
	</g>
	<g>
		<g>
			<path class="st1" d="M82.5,5.1c42.7,0,77.5,34.8,77.5,77.5s-34.8,77.5-77.5,77.5S5,125.3,5,82.6S39.8,5.1,82.5,5.1 M82.5,0.1
				C37,0.1,0,37,0,82.6s36.9,82.5,82.5,82.5S165,128.1,165,82.6S128.1,0.1,82.5,0.1L82.5,0.1z"/>
		</g>
	</g>
</g>
<g>
	<g>
		<path class="st1" d="M122.2,85.5c0-3.6-2.9-6.4-6.4-6.4c-3.6,0-6.4,2.2-6.4,5.7l0,2.1c-0.1,1-0.9,1.7-1.8,1.7
			c-1,0-1.7-0.7-1.8-1.6V74.5c0-3.6-2.9-6.4-6.4-6.4c-3.6,0-6.4,2.9-6.4,6.4v12.7c-0.2,0.8-0.9,1.5-1.8,1.5c-1,0-1.9-0.8-1.9-1.9
			v-5.6V69.7c0-3.6-2.9-6.4-6.4-6.4c-3.6,0-6.4,2.9-6.4,6.4v17.5c-0.2,0.8-0.9,1.5-1.8,1.5c-1,0-1.9-0.8-1.9-1.9v-6.3V48.5
			c0-3.6-2.9-6.4-6.4-6.4c-3.5,0-6.4,2.9-6.4,6.4c0,0,0.5,53.7,0.2,53.8l-9.3-13.5c-2.3-3.3-6.9-4.2-10.2-1.9
			c-3.3,2.3-4.2,6.9-2,10.1l16.3,23.7c0.1,0.1,0.2,0.2,0.3,0.4c1.7,3.1,4.4,6.2,6.7,9.1c6.2,7.7,15.1,14.4,26.2,14.4
			c18.9,0,34.2-14.4,34.2-32.1C122.2,110.1,122.2,85.5,122.2,85.5z"/>
	</g>
	<g>
		<path class="st2" d="M76.6,27.2c-0.1-0.3-0.4-0.6-0.8-0.6l0,0l-6.7,0l-2.9-7.6c-0.1-0.3-0.4-0.5-0.8-0.5c0,0,0,0,0,0
			c-0.3,0-0.7,0.2-0.8,0.6l-2.3,7.6l-8.1,0c-0.4,0-0.7,0.2-0.8,0.6c-0.1,0.3,0,0.7,0.3,0.9l6.7,4.3l-2.2,7c-0.1,0.3,0,0.7,0.3,0.9
			c0.3,0.2,0.7,0.2,1,0l6.1-4.5l7,4.5c0.1,0.1,0.3,0.1,0.4,0.1c0.2,0,0.4-0.1,0.5-0.2c0.3-0.2,0.4-0.6,0.2-0.9L71,32l5.2-3.8
			C76.5,27.9,76.7,27.6,76.6,27.2z"/>
	</g>
</g>
</svg>
