<?xml version="1.0" encoding="utf-8"?>
<!-- Generator: Adobe Illustrator 21.1.0, SVG Export Plug-In . SVG Version: 6.00 Build 0)  -->
<svg version="1.1" id="Layer_3" xmlns="http://www.w3.org/2000/svg" xmlns:xlink="http://www.w3.org/1999/xlink" x="0px" y="0px"
	 viewBox="0 0 165 165" style="enable-background:new 0 0 165 165;" xml:space="preserve">
<style type="text/css">

	.st1{fill:#0434C0;}
	.st2{fill:#07FFDE;}
	.st3{fill:#FFFFFF;}
	.st4{fill:#00A651;}
	.st5{fill:none;stroke:#0434C0;stroke-width:3;stroke-linecap:round;stroke-linejoin:round;stroke-miterlimit:10;}
	.st6{fill-rule:evenodd;clip-rule:evenodd;}
	.st7{fill-rule:evenodd;clip-rule:evenodd;fill:#FFFFFF;}
	
		.st8{fill-rule:evenodd;clip-rule:evenodd;fill:none;stroke:#07FFDE;stroke-width:3;stroke-linecap:round;stroke-linejoin:round;stroke-miterlimit:10;}
</style>
<g>
	<g>
		<path d="M82.5,162.5c-44.1,0-80-35.9-80-80s35.9-80,80-80s80,35.9,80,80S126.6,162.5,82.5,162.5z"/>
	</g>
	<g>
		<path class="st1" d="M82.5,5C125.2,5,160,39.7,160,82.5S125.2,160,82.5,160S5,125.2,5,82.5S39.8,5,82.5,5 M82.5,0
			C36.9,0,0,36.9,0,82.5S36.9,165,82.5,165S165,128,165,82.5S128.1,0,82.5,0L82.5,0z"/>
	</g>
</g>
<g>
	<g>
		<path class="st2" d="M83,118.2c-16.2,0-29.4-13.2-29.4-29.4c0-0.4,0-0.8,0.1-1.3l0-0.3V40.1h5l0,47.3l0,0.4c0,0.3,0,0.6,0,0.9
			c0,13.4,10.9,24.4,24.4,24.4c13.4,0,24.3-10.9,24.4-24.3c0-0.1,0-0.2,0-0.2l0-48.5h5v51h-0.1C111.1,106.2,98.4,118.2,83,118.2z"/>
	</g>
	<g>
		<path class="st2" d="M82.6,94.2c-1.4,0-2.5-1.1-2.5-2.5V47.4c0-1.4,1.1-2.5,2.5-2.5s2.5,1.1,2.5,2.5v44.3
			C85.1,93.1,84,94.2,82.6,94.2z"/>
	</g>
	<g>
		<path class="st2" d="M82,48.9c-15.4,0-29.5-4.6-37.8-12.5c-1-0.9-1-2.5-0.1-3.5s2.5-1,3.5-0.1C55.2,40,69,44.2,83.5,43.9
			c13.5-0.3,26.1-4.4,33.7-11c1-0.9,2.6-0.8,3.5,0.2c0.9,1,0.8,2.6-0.2,3.5C112,44,98.2,48.6,83.6,48.9C83,48.9,82.5,48.9,82,48.9z"
			/>
	</g>
	<g>
		<path class="st1" d="M93.8,129.4c-0.1-0.3-0.4-0.6-0.8-0.6l0,0l-6.7,0l-2.9-7.6c-0.1-0.3-0.4-0.5-0.8-0.5c0,0,0,0,0,0
			c-0.3,0-0.7,0.2-0.8,0.6l-2.3,7.6l-8.1,0c-0.4,0-0.7,0.2-0.8,0.6c-0.1,0.3,0,0.7,0.3,0.9l6.7,4.3l-2.2,7c-0.1,0.3,0,0.7,0.3,0.9
			c0.3,0.2,0.7,0.2,1,0l6.1-4.5l7,4.5c0.1,0.1,0.3,0.1,0.4,0.1c0.2,0,0.4-0.1,0.5-0.2c0.3-0.2,0.4-0.6,0.2-0.9l-2.9-7.5l5.2-3.8
			C93.8,130.1,93.9,129.7,93.8,129.4z"/>
	</g>
</g>
</svg>
