<?xml version="1.0" encoding="utf-8"?>
<!-- Generator: Adobe Illustrator 21.1.0, SVG Export Plug-In . SVG Version: 6.00 Build 0)  -->
<svg version="1.1" id="Layer_3" xmlns="http://www.w3.org/2000/svg" xmlns:xlink="http://www.w3.org/1999/xlink" x="0px" y="0px"
	 viewBox="0 0 165 165" style="enable-background:new 0 0 165 165;" xml:space="preserve">
<style type="text/css">
	.st0{fill:#F8F8F8;}
	.st1{fill:#0434C0;}
	.st2{fill:#07FFDE;}
	.st3{fill:#FFFFFF;}
	.st4{fill:#00A651;}
	.st5{fill:none;stroke:#0434C0;stroke-width:3;stroke-linecap:round;stroke-linejoin:round;stroke-miterlimit:10;}
	.st6{fill-rule:evenodd;clip-rule:evenodd;}
	.st7{fill-rule:evenodd;clip-rule:evenodd;fill:#FFFFFF;}
	
		.st8{fill-rule:evenodd;clip-rule:evenodd;fill:none;stroke:#07FFDE;stroke-width:3;stroke-linecap:round;stroke-linejoin:round;stroke-miterlimit:10;}
</style>
<g>
	<g>
		<path class="st0" d="M82.6,162.5c-44.1,0-80-35.9-80-80s35.9-80,80-80s80,35.9,80,80S126.7,162.5,82.6,162.5z"/>
	</g>
	<g>
		<path class="st1" d="M82.6,5c42.7,0,77.5,34.8,77.5,77.5S125.3,160,82.6,160S5.1,125.2,5.1,82.5S39.8,5,82.6,5 M82.6,0
			C37,0,0.1,36.9,0.1,82.5S37,165,82.6,165s82.5-36.9,82.5-82.5S128.1,0,82.6,0L82.6,0z"/>
	</g>
</g>
<g>
	<path class="st2" d="M61.2,45.6c3.6,0,6.5,2.9,6.5,6.5c0,3.6-2.9,6.5-6.5,6.5c-3.6,0-6.5-2.9-6.5-6.5
		C54.7,48.5,57.6,45.6,61.2,45.6 M61.2,40.6c-6.4,0-11.5,5.2-11.5,11.5c0,6.4,5.1,11.5,11.5,11.5c6.4,0,11.5-5.2,11.5-11.5
		C72.7,45.7,67.5,40.6,61.2,40.6L61.2,40.6z"/>
</g>
<g>
	<circle class="st1" cx="91.4" cy="41.3" r="11.5"/>
</g>
<g>
	<path class="st1" d="M65.8,133.6c-1.4,0-2.5-1.1-2.5-2.5v-28.4c0-1.4,1.1-2.5,2.5-2.5h23.3l-0.3-39.7c0-1.4,1.1-2.5,2.5-2.5
		c1.4,0,2.5,1.1,2.5,2.5l0.3,42.2c0,0.7-0.3,1.3-0.7,1.8c-0.5,0.5-1.1,0.7-1.8,0.7H68.3v25.9C68.3,132.4,67.2,133.6,65.8,133.6z"/>
</g>
<g>
	<path class="st2" d="M100.8,126.7c-1.4,0-2.5-1.1-2.5-2.5V97.3l-22-0.3c-1.1,0-2-0.7-2.3-1.7l-8-23.8c-0.4-1.3,0.3-2.7,1.6-3.2
		c1.3-0.4,2.7,0.3,3.2,1.6L78.1,92l22.7,0.3c1.4,0,2.5,1.1,2.5,2.5v29.4C103.3,125.6,102.2,126.7,100.8,126.7z"/>
</g>
</svg>
