<?xml version="1.0" encoding="utf-8"?>
<!-- Generator: Adobe Illustrator 21.1.0, SVG Export Plug-In . SVG Version: 6.00 Build 0)  -->
<svg version="1.1" id="Layer_3" xmlns="http://www.w3.org/2000/svg" xmlns:xlink="http://www.w3.org/1999/xlink" x="0px" y="0px"
	 viewBox="0 0 165 165" style="enable-background:new 0 0 165 165;" xml:space="preserve">
<style type="text/css">

	.st1{fill:#0434C0;}
	.st2{fill:#07FFDE;}
	.st3{fill:#FFFFFF;}
	.st4{fill:#00A651;}
	.st5{fill:none;stroke:#0434C0;stroke-width:3;stroke-linecap:round;stroke-linejoin:round;stroke-miterlimit:10;}
	.st6{fill-rule:evenodd;clip-rule:evenodd;}
	.st7{fill-rule:evenodd;clip-rule:evenodd;fill:#FFFFFF;}
	
		.st8{fill-rule:evenodd;clip-rule:evenodd;fill:none;stroke:#07FFDE;stroke-width:3;stroke-linecap:round;stroke-linejoin:round;stroke-miterlimit:10;}
</style>
<g>
	<circle cx="82.8" cy="82.5" r="82.5"/>
</g>
<g>
	<g>
		<path class="st2" d="M96.4,50h-5c0-4.7-3.8-8.5-8.5-8.5s-8.5,3.8-8.5,8.5h-5c0-7.5,6.1-13.5,13.5-13.5
			C90.3,36.5,96.4,42.5,96.4,50z"/>
	</g>
	<g>
		<path class="st2" d="M101.7,42.4c-1,0-1.9-0.6-2.3-1.5c-1.2-2.8-3.6-5-6.6-6c-1.3-0.4-2-1.8-1.6-3.2c0.4-1.3,1.8-2,3.2-1.6
			c4.3,1.4,7.8,4.6,9.6,8.7c0.6,1.3,0,2.7-1.3,3.3C102.4,42.3,102.1,42.4,101.7,42.4z"/>
	</g>
	<g>
		<path class="st2" d="M105,35.6c-0.8,0-1.6-0.4-2.1-1.2c-1.1-1.7-2.5-3-4.3-3.9c-1.2-0.6-1.7-2.1-1.1-3.4c0.6-1.2,2.1-1.7,3.4-1.1
			c2.6,1.3,4.7,3.3,6.3,5.7c0.7,1.2,0.4,2.7-0.8,3.4C105.9,35.5,105.5,35.6,105,35.6z"/>
	</g>
	<g>
		<path class="st2" d="M63.8,42.4c-0.3,0-0.7-0.1-1-0.2c-1.3-0.6-1.8-2-1.3-3.3c1.8-4.1,5.3-7.3,9.6-8.7c1.3-0.4,2.7,0.3,3.2,1.6
			c0.4,1.3-0.3,2.7-1.6,3.2c-2.9,1-5.4,3.2-6.6,6C65.7,41.8,64.7,42.4,63.8,42.4z"/>
	</g>
	<g>
		<path class="st2" d="M60.5,35.6c-0.5,0-0.9-0.1-1.3-0.4c-1.2-0.7-1.5-2.3-0.8-3.4c1.5-2.4,3.7-4.4,6.3-5.7
			c1.2-0.6,2.7-0.1,3.4,1.1c0.6,1.2,0.1,2.7-1.1,3.4c-1.8,0.9-3.2,2.3-4.3,3.9C62.1,35.2,61.3,35.6,60.5,35.6z"/>
	</g>
	<g>
		<path class="st2" d="M93.9,139.1H71.9c-1.4,0-2.5-1.1-2.5-2.5v-12.7c0-1.4,1.1-2.5,2.5-2.5s2.5,1.1,2.5,2.5v10.2h17.1v-10.2
			c0-1.4,1.1-2.5,2.5-2.5s2.5,1.1,2.5,2.5v12.7C96.4,138,95.3,139.1,93.9,139.1z"/>
	</g>
	<g>
		<path class="st2" d="M93.9,131.7H71.9c-1.4,0-2.5-1.1-2.5-2.5s1.1-2.5,2.5-2.5h22.1c1.4,0,2.5,1.1,2.5,2.5S95.3,131.7,93.9,131.7z
			"/>
	</g>
	<g>
		<path class="st2" d="M96.4,124.3H69.4V49.1h27.1V124.3z M74.4,119.3h17.1V54.1H74.4V119.3z"/>
	</g>
</g>
</svg>
