<?xml version="1.0" standalone="no"?>
<!DOCTYPE svg PUBLIC "-//W3C//DTD SVG 1.1//EN" "http://www.w3.org/Graphics/SVG/1.1/DTD/svg11.dtd" >
<svg xmlns="http://www.w3.org/2000/svg">
<metadata>Generated by IcoMoon</metadata>
<defs>
<font id="icomoon" horiz-adv-x="1024">
<font-face units-per-em="1024" ascent="960" descent="-64" />
<missing-glyph horiz-adv-x="1024" />
<glyph unicode="&#x20;" horiz-adv-x="512" d="" />
<glyph unicode="&#xe800;" glyph-name="logo" horiz-adv-x="1105" d="M694.272 399.872l379.904-325.632c21.634-14.519 35.681-38.886 35.681-66.534 0-44.112-35.76-79.872-79.872-79.872-24.559 0-46.529 11.084-61.181 28.523l-0.1 0.122-393.216 336.896M389.12 476.672l-229.376 220.16v-500.736l812.032 743.424c13.601 11.079 31.144 17.791 50.254 17.791 44.112 0 79.872-35.76 79.872-79.872 0-21.661-8.623-41.309-22.623-55.697l0.018 0.018-946.176-865.28c-14.065-12.621-32.755-20.339-53.248-20.339-44.063 0-79.792 35.68-79.872 79.723v864.264c0.132 44.012 35.841 79.639 79.872 79.639 20.98 0 40.070-8.089 54.323-21.318l-0.051 0.046 372.736-354.304" />
<glyph unicode="&#xe805;" glyph-name="up-open-big" horiz-adv-x="885" d="M823.296 222.72l-380.928 366.592-378.88-366.592q-26.624-22.528-51.2 0-24.576 24.576 0 51.2l405.504 399.36q26.624 26.624 49.152 0l405.504-399.36q24.576-26.624 0-51.2-26.624-22.528-49.152 0z" />
<glyph unicode="&#xe806;" glyph-name="right-open-big" horiz-adv-x="476" d="M13.312 69.12l366.592 378.88-366.592 380.928q-26.624 26.624 0 49.152 26.624 26.624 49.152 0l401.408-403.456q24.576-26.624 0-51.2l-401.408-403.456q-22.528-26.624-49.152 0-26.624 22.528 0 49.152z" />
<glyph unicode="&#xe807;" glyph-name="left-open-big" horiz-adv-x="476" d="M462.848 69.12q26.624-26.624 0-49.152-26.624-26.624-49.152 0l-401.408 403.456q-24.576 24.576 0 51.2l401.408 403.456q22.528 26.624 49.152 0 26.624-22.528 0-49.152l-366.592-380.928z" />
<glyph unicode="&#xe808;" glyph-name="down-open-big" horiz-adv-x="887" d="M64.512 673.28l378.88-364.544 380.928 364.544q22.528 26.624 49.152 0 26.624-22.528 0-49.152l-405.504-401.408q-22.528-22.528-49.152 0l-405.504 401.408q-26.624 26.624 0 49.152 24.576 24.576 51.2 0z" />
<glyph unicode="&#xe809;" glyph-name="heart-empty" d="M951.296 619.008q0 47.104-12.288 81.92t-31.744 56.32-47.104 33.792-53.248 18.432-56.32 4.096-63.488-14.336-63.488-36.864-49.152-40.96-34.816-34.816q-10.24-13.312-27.648-13.312t-27.648 13.312q-14.336 15.36-34.816 34.816t-49.152 40.96-63.488 36.864-63.488 14.336-56.32-4.096-53.248-18.432-47.104-33.792-31.744-56.32-12.288-81.92q0-95.232 107.52-202.752l331.776-319.488 331.776 319.488q107.52 107.52 107.52 202.752zM1024 619.008q0-125.952-131.072-257.024l-355.328-343.040q-10.24-10.24-25.6-10.24t-25.6 10.24l-356.352 344.064q-5.12 5.12-15.36 15.36t-31.744 37.888-38.912 55.296-30.72 68.608-13.312 78.848q0 125.952 72.704 196.608t200.704 71.68q34.816 0 71.68-12.288t68.608-33.792 55.296-38.912 43.008-38.912q20.48 20.48 43.008 38.912t55.296 38.912 68.608 33.792 71.68 12.288q128 0 200.704-71.68t72.704-196.608z" />
<glyph unicode="&#xe80a;" glyph-name="plus" horiz-adv-x="594" d="M563.2 499.2q30.72 0 30.72-51.2t-30.72-51.2h-215.040v-215.040q0-30.72-51.2-30.72t-51.2 30.72v215.040h-215.040q-30.72 0-30.72 51.2t30.72 51.2h215.040v215.040q0 30.72 51.2 30.72t51.2-30.72v-215.040h215.040z" />
<glyph unicode="&#xe80b;" glyph-name="down-small" horiz-adv-x="532" d="M517.12 443.904q15.36-15.36 15.36-37.888t-15.36-37.888l-250.88-250.88-250.88 250.88q-15.36 15.36-15.36 37.888t15.36 37.888 37.888 15.36 37.888-15.36l122.88-121.856v404.48q0 21.504 15.36 36.864t36.864 15.36 37.888-15.36 16.384-36.864v-404.48l122.88 121.856q15.36 15.36 36.864 15.36t36.864-15.36z" />
<glyph unicode="&#xe80c;" glyph-name="right-small" horiz-adv-x="662" d="M335.872 698.88q15.36 15.36 36.864 15.36t37.888-15.36l250.88-250.88-250.88-250.88q-15.36-15.36-36.864-15.36-22.528 0-37.888 15.36t-15.36 37.888 15.36 37.888l122.88 121.856h-404.48q-22.528 0-37.888 15.36t-16.384 37.888 16.384 37.888 37.888 16.384h404.48l-122.88 120.832q-15.36 15.36-15.36 37.888t15.36 37.888z" />
<glyph unicode="&#xe80d;" glyph-name="up-small" horiz-adv-x="532" d="M266.24 778.752l250.88-250.88q15.36-15.36 15.36-37.888t-15.36-37.888-36.864-15.36-36.864 15.36l-122.88 122.88v-404.48q0-21.504-16.384-37.888t-37.888-15.36-36.864 15.36-15.36 37.888v404.48l-122.88-122.88q-15.36-15.36-37.888-15.36t-37.888 15.36-15.36 37.888 15.36 37.888z" />
<glyph unicode="&#xe80e;" glyph-name="left-small" horiz-adv-x="662" d="M609.28 502.272q21.504 0 36.864-16.384t15.36-37.888-15.36-37.888-36.864-15.36h-404.48l121.856-121.856q15.36-15.36 15.36-37.888t-15.36-37.888-36.864-15.36q-23.552 0-38.912 15.36l-250.88 250.88 250.88 250.88q15.36 15.36 37.888 15.36t37.888-15.36 15.36-37.888-15.36-37.888l-121.856-120.832h404.48z" />
<glyph unicode="&#xe80f;" glyph-name="search" horiz-adv-x="808" d="M790.528 169.472q30.72-34.816 6.144-63.488l-47.104-47.104q-36.864-32.768-69.632 0l-194.56 194.56q-75.776-43.008-159.744-43.008-131.072 0-228.352 97.28t-97.28 228.352 92.16 224.256 223.232 93.184 229.376-97.28 98.304-228.352q0-90.112-47.104-165.888zM96.256 536.064q0-90.112 69.632-159.744t159.744-69.632 154.624 64.512 64.512 156.672q0 90.112-69.632 158.72t-159.744 68.608-154.624-64.512-64.512-154.624z" />
<glyph unicode="&#xe810;" glyph-name="plus-circled" horiz-adv-x="860" d="M430.080 878.080q178.176 0 304.128-125.952t125.952-304.128-125.952-304.128-304.128-125.952-304.128 125.952-125.952 304.128 125.952 304.128 304.128 125.952zM483.328 396.8h204.8v104.448h-204.8v206.848h-104.448v-206.848h-206.848v-104.448h206.848v-206.848h104.448v206.848z" />
<glyph unicode="&#xe811;" glyph-name="users" horiz-adv-x="1097" d="M338.944 448q-92.16-3.072-151.552-72.704h-76.8q-46.080 0-78.848 22.528t-31.744 67.584q0 201.728 70.656 201.728 4.096 0 25.6-11.264t55.296-24.576 67.584-12.288q38.912 0 76.8 13.312-3.072-21.504-3.072-37.888 0-79.872 46.080-146.432zM951.296 83.456q0-67.584-41.984-107.52t-110.592-39.936h-499.712q-69.632 0-110.592 39.936t-41.984 107.52q0 30.72 2.048 59.392t8.192 62.464 14.336 62.464 24.576 55.296 35.84 46.080 49.152 30.72 63.488 11.264q6.144 0 24.576-12.288t41.984-26.624 60.416-27.648 77.824-12.288 76.8 12.288 61.44 27.648 41.984 26.624 24.576 12.288q34.816 0 63.488-11.264t48.128-30.72 35.84-46.080 24.576-55.296 15.36-62.464 8.192-62.464 2.048-59.392zM365.568 813.568q0-60.416-43.008-103.424t-103.424-43.008-103.424 43.008-43.008 103.424 43.008 103.424 103.424 43.008 103.424-43.008 43.008-103.424zM768 594.432q0-91.136-64.512-155.648t-154.624-63.488-155.648 63.488-64.512 155.648 64.512 154.624 155.648 64.512 154.624-64.512 64.512-154.624zM1096.704 465.408q0-44.032-31.744-67.584t-78.848-22.528h-76.8q-58.368 69.632-150.528 72.704 46.080 66.56 46.080 146.432 0 16.384-3.072 37.888 37.888-13.312 75.776-13.312 33.792 0 68.608 12.288t55.296 24.576 24.576 11.264q70.656 0 70.656-201.728zM1024 813.568q0-60.416-43.008-103.424t-103.424-43.008-103.424 43.008-43.008 103.424 43.008 103.424 103.424 43.008 103.424-43.008 43.008-103.424z" />
<glyph unicode="&#xe812;" glyph-name="off" horiz-adv-x="878" d="M877.568 448q0-89.088-34.816-169.984t-93.184-140.288-140.288-94.208-169.984-34.816-171.008 34.816-139.264 94.208-94.208 140.288-34.816 169.984q0 104.448 46.080 195.584t129.024 154.624q24.576 18.432 55.296 14.336t47.104-28.672q18.432-23.552 14.336-54.272t-28.672-48.128q-55.296-41.984-86.016-103.424t-30.72-130.048q0-59.392 23.552-113.664t62.464-93.184 93.184-62.464 113.664-23.552 112.64 23.552 94.208 62.464 62.464 93.184 22.528 113.664q0 69.632-30.72 130.048t-86.016 103.424q-23.552 18.432-28.672 48.128t14.336 54.272q17.408 24.576 48.128 28.672t54.272-14.336q82.944-62.464 129.024-154.624t46.080-195.584zM512 887.296v-366.592q0-29.696-21.504-51.2t-51.2-21.504-52.224 21.504-21.504 51.2v366.592q0 29.696 21.504 51.2t52.224 21.504 51.2-21.504 21.504-51.2z" />
<glyph unicode="&#xe825;" glyph-name="male" horiz-adv-x="585" d="M584.704 557.568v-237.568q0-22.528-15.36-38.912t-38.912-16.384-38.912 16.384-16.384 38.912v200.704h-35.84v-521.216q0-25.6-19.456-45.056t-45.056-18.432-45.056 18.432-18.432 45.056v265.216h-36.864v-265.216q0-25.6-19.456-45.056t-45.056-18.432-45.056 18.432-18.432 45.056v521.216h-36.864v-200.704q0-22.528-15.36-38.912t-38.912-16.384-38.912 16.384-16.384 38.912v237.568q0 46.080 31.744 77.824t77.824 31.744h365.568q46.080 0 77.824-31.744t31.744-77.824zM420.864 813.568q0-53.248-37.888-90.112t-90.112-37.888-91.136 37.888-36.864 90.112 36.864 91.136 91.136 36.864 90.112-36.864 37.888-91.136z" />
<glyph unicode="&#xe826;" glyph-name="female" horiz-adv-x="731" d="M731.136 356.864q0-23.552-15.36-38.912t-38.912-16.384q-29.696 0-46.080 24.576l-130.048 194.56h-25.6v-74.752l141.312-235.52q5.12-8.192 5.12-18.432 0-14.336-10.24-25.6t-26.624-11.264h-109.568v-155.648q0-25.6-18.432-45.056t-45.056-18.432h-91.136q-26.624 0-46.080 18.432t-18.432 45.056v155.648h-109.568q-15.36 0-25.6 11.264t-11.264 25.6q0 10.24 5.12 18.432l141.312 235.52v74.752h-25.6l-130.048-194.56q-16.384-24.576-45.056-24.576-23.552 0-38.912 16.384t-16.384 38.912q0 16.384 9.216 29.696l146.432 220.16q41.984 60.416 100.352 60.416h219.136q59.392 0 101.376-60.416l145.408-220.16q9.216-13.312 9.216-29.696zM493.568 813.568q0-53.248-36.864-90.112t-91.136-37.888-90.112 37.888-37.888 90.112 37.888 91.136 90.112 36.864 91.136-36.864 36.864-91.136z" />
<glyph unicode="&#xe830;" glyph-name="user-times" horiz-adv-x="1169" d="M402.432 448q-91.136 0-155.648 64.512t-63.488 154.624 63.488 155.648 155.648 64.512 154.624-64.512 64.512-155.648-64.512-154.624-154.624-64.512zM1017.856 264.704l142.336-141.312q5.12-5.12 5.12-13.312t-5.12-13.312l-77.824-77.824q-5.12-5.12-12.288-5.12-8.192 0-13.312 5.12l-142.336 142.336-142.336-142.336q-5.12-5.12-13.312-5.12-7.168 0-12.288 5.12l-77.824 77.824q-5.12 5.12-5.12 13.312t5.12 13.312l142.336 141.312-142.336 142.336q-5.12 5.12-5.12 13.312t5.12 13.312l77.824 76.8q5.12 5.12 12.288 5.12 8.192 0 13.312-5.12l142.336-142.336 142.336 142.336q5.12 5.12 13.312 5.12 7.168 0 12.288-5.12l77.824-76.8q5.12-5.12 5.12-13.312t-5.12-13.312zM733.184 264.704l-103.424-103.424q-21.504-20.48-21.504-51.2t21.504-52.224l47.104-47.104q-11.264-2.048-24.576-2.048h-499.712q-68.608 0-110.592 39.936t-41.984 108.544q0 30.72 2.048 59.392t8.192 62.464 15.36 61.44 24.576 56.32 34.816 46.080 49.152 30.72 63.488 11.264q11.264 0 22.528-10.24 88.064-69.632 182.272-69.632t182.272 69.632q11.264 10.24 22.528 10.24 15.36 0 31.744-4.096-15.36-15.36-22.528-27.648t-8.192-32.768q0-30.72 21.504-52.224z" />
<glyph unicode="&#xe831;" glyph-name="user-plus" horiz-adv-x="1169" d="M402.432 448q-91.136 0-155.648 64.512t-63.488 154.624 63.488 155.648 155.648 64.512 154.624-64.512 64.512-155.648-64.512-154.624-154.624-64.512zM951.296 375.296h200.704q7.168 0 13.312-6.144t5.12-12.288v-109.568q0-8.192-5.12-13.312t-13.312-5.12h-200.704v-201.728q0-7.168-6.144-12.288t-12.288-6.144h-109.568q-8.192 0-13.312 6.144t-5.12 12.288v201.728h-201.728q-7.168 0-12.288 5.12t-6.144 13.312v109.568q0 7.168 6.144 12.288t12.288 6.144h201.728v200.704q0 7.168 5.12 13.312t13.312 5.12h109.568q7.168 0 12.288-5.12t6.144-13.312v-200.704zM530.432 247.296q0-29.696 21.504-52.224t51.2-21.504h146.432v-136.192q-38.912-28.672-97.28-28.672h-499.712q-68.608 0-110.592 39.936t-41.984 108.544q0 30.72 2.048 59.392t8.192 62.464 15.36 61.44 24.576 56.32 34.816 46.080 49.152 30.72 63.488 11.264q11.264 0 22.528-10.24 45.056-34.816 88.064-52.224t94.208-17.408 94.208 17.408 88.064 52.224q11.264 10.24 22.528 10.24 74.752 0 123.904-55.296h-128q-29.696 0-51.2-21.504t-21.504-51.2v-109.568z" />
<glyph unicode="&#xe832;" glyph-name="user-1" horiz-adv-x="731" d="M731.136 160.256q0-61.44-35.84-106.496t-86.016-45.056h-487.424q-50.176 0-86.016 45.056t-35.84 106.496q0 49.152 5.12 92.16t17.408 87.040 33.792 74.752 53.248 51.2 77.824 19.456q74.752-73.728 178.176-73.728t179.2 73.728q43.008 0 76.8-19.456t53.248-51.2 33.792-74.752 18.432-87.040 4.096-92.16zM584.704 667.136q0-90.112-63.488-154.624t-155.648-64.512-154.624 64.512-64.512 154.624 64.512 155.648 154.624 64.512 155.648-64.512 63.488-155.648z" />
<glyph unicode="&#xe833;" glyph-name="child" horiz-adv-x="731" d="M678.912 646.656l-166.912-166.912v-471.040q0-25.6-18.432-45.056t-45.056-18.432-46.080 18.432-18.432 45.056v220.16h-36.864v-220.16q0-25.6-18.432-45.056t-45.056-18.432-45.056 18.432-19.456 45.056v471.040l-166.912 166.912q-15.36 16.384-15.36 38.912t15.36 38.912q17.408 16.384 39.936 16.384t37.888-16.384l131.072-130.048h209.92l130.048 130.048q16.384 16.384 38.912 16.384t38.912-16.384 16.384-38.912-16.384-38.912zM493.568 740.864q0-53.248-36.864-91.136t-91.136-36.864-90.112 36.864-37.888 91.136 37.888 90.112 90.112 37.888 91.136-37.888 36.864-90.112z" />
<glyph unicode="&#xe834;" glyph-name="heart" d="M512 8.704q-14.336 0-25.6 10.24l-356.352 344.064q-5.12 5.12-15.36 15.36t-31.744 37.888-38.912 55.296-30.72 68.608-13.312 78.848q0 125.952 72.704 196.608t200.704 71.68q34.816 0 71.68-12.288t68.608-33.792 55.296-38.912 43.008-38.912q20.48 20.48 43.008 38.912t55.296 38.912 68.608 33.792 71.68 12.288q128 0 200.704-71.68t72.704-196.608q0-125.952-131.072-257.024l-355.328-343.040q-10.24-10.24-25.6-10.24z" />
<glyph unicode="&#xe836;" glyph-name="star" horiz-adv-x="950" d="M951.296 590.336q0-12.288-15.36-27.648l-206.848-201.728 49.152-285.696q0-4.096 0-12.288 0-11.264-6.144-19.456t-17.408-9.216q-10.24 0-22.528 7.168l-257.024 135.168-256-135.168q-12.288-7.168-23.552-7.168t-17.408 9.216-6.144 19.456q0 4.096 1.024 12.288l49.152 285.696-207.872 201.728q-14.336 15.36-14.336 27.648 0 21.504 31.744 26.624l286.72 40.96 129.024 260.096q11.264 23.552 27.648 23.552t28.672-23.552l128-260.096 286.72-40.96q32.768-5.12 32.768-26.624z" />
<glyph unicode="&#xe837;" glyph-name="star-empty" horiz-adv-x="950" d="M650.24 386.56l174.080 169.984-240.64 34.816-108.544 218.112-107.52-218.112-241.664-34.816 175.104-169.984-41.984-240.64 216.064 113.664 216.064-113.664zM951.296 590.336q0-12.288-15.36-27.648l-206.848-201.728 49.152-285.696q0-4.096 0-12.288 0-28.672-23.552-28.672-10.24 0-22.528 7.168l-257.024 135.168-256-135.168q-12.288-7.168-23.552-7.168t-17.408 9.216-6.144 19.456q0 4.096 1.024 12.288l49.152 285.696-207.872 201.728q-14.336 15.36-14.336 27.648 0 21.504 31.744 26.624l286.72 40.96 129.024 260.096q11.264 23.552 27.648 23.552t28.672-23.552l128-260.096 286.72-40.96q32.768-5.12 32.768-26.624z" />
<glyph unicode="&#xe900;" glyph-name="brand" d="M967.488 960h-910.976c-31.232 0-56.512-25.28-56.512-56.512v-910.976c0-31.232 25.28-56.512 56.512-56.512h490.432v396.544h-133.504v154.496h133.504v114.112c0 132.224 80.768 204.16 198.784 204.16 56.512 0 105.088-4.096 119.232-6.016v-138.24h-81.92c-64 0-76.48-30.72-76.48-75.52v-98.56h152.96l-19.84-154.88h-133.12v-396.096h260.928c31.232 0 56.512 25.28 56.512 56.512v910.976c0 31.232-25.28 56.512-56.512 56.512z" />
<glyph unicode="&#xe901;" glyph-name="brand2" d="M189.12 4.48l170.688 295.68h664.192l-170.688-295.68h-664.192zM341.312 300.16l-170.624-295.68-170.688 295.68 332.16 575.36 170.624-295.68-161.472-279.68zM1014.784 316.16h-341.312l-332.16 575.36h341.376l332.16-575.36z" />
<glyph unicode="&#xe902;" glyph-name="brand3" d="M325.76 494.528v-111.68h184.96c-7.424-48-55.872-140.608-184.768-140.608-111.168 0-201.92 92.16-201.92 205.76s90.56 205.76 201.728 205.76c63.36 0 105.728-27.008 129.92-50.304l88.448 85.12c-56.768 53.12-130.368 85.12-218.24 85.12-180.288 0.064-325.888-145.856-325.888-325.696s145.664-325.76 325.76-325.76c188.16 0 312.832 132.16 312.832 318.336 0 21.376-2.304 37.76-5.12 53.952h-307.712zM1024 494.528h-93.12v93.12h-93.12v-93.12h-93.056v-93.056h93.12v-93.12h93.44v93.12h92.736z" />
<glyph unicode="&#xe903;" d="M513.241-49.105c-273.687 0-496.485 222.798-496.485 496.485s222.798 496.485 496.485 496.485 496.485-222.798 496.485-496.485-222.798-496.485-496.485-496.485z" />
<glyph unicode="&#xe904;" d="M513.241 928.349c264.999 0 480.97-215.971 480.97-480.97s-215.971-480.97-480.97-480.97-480.97 215.35-480.97 480.97 215.971 480.97 480.97 480.97zM513.241 959.379c-282.996 0-512-229.624-512-512s229.004-512 512-512 512 229.004 512 512-229.004 512-512 512v0z" />
<glyph unicode="&#xe905;" d="M240.795 322.017c-3.724 0-6.827 1.241-9.93 3.724l-131.568 107.365c-6.827 5.585-7.447 14.895-2.482 21.721 5.585 6.827 14.895 7.447 21.721 2.482l114.812-93.712 82.541 229.624c2.482 6.206 8.068 10.55 14.895 10.55 0 0 0 0 0 0l230.245-0.621c8.688 0 15.515-6.827 15.515-15.515s-6.827-15.515-15.515-15.515l-219.074 0.621-86.264-240.175c-1.862-4.965-5.585-8.068-10.55-9.93-1.862-0.621-3.103-0.621-4.344-0.621z" />
<glyph unicode="&#xe906;" d="M695.699 320.776c0 0 0 0 0 0l-230.245 0.621c-8.688 0-15.515 6.827-15.515 15.515s6.827 15.515 15.515 15.515c0 0 0 0 0 0l219.074-0.621 86.264 240.175c1.862 4.965 5.585 8.068 10.55 9.93 4.965 1.241 9.93 0 13.653-3.103l131.568-107.365c6.827-5.585 7.447-14.895 2.482-21.721-5.585-6.827-14.895-7.447-21.721-2.482l-114.812 93.712-82.541-229.624c-1.862-6.827-7.447-10.55-14.274-10.55z" />
<glyph unicode="&#xe907;" d="M673.978 462.274c0-39.416-31.953-71.37-71.37-71.37s-71.37 31.953-71.37 71.37c0 39.416 31.953 71.37 71.37 71.37s71.37-31.953 71.37-71.37z" />
<glyph unicode="&#xe908;" d="M494.002 462.274c0-39.416-31.953-71.37-71.37-71.37s-71.37 31.953-71.37 71.37c0 39.416 31.953 71.37 71.37 71.37s71.37-31.953 71.37-71.37z" />
<glyph unicode="&#xe909;" d="M1024 447.379c0-282.77-229.23-512-512-512s-512 229.23-512 512c0 282.77 229.23 512 512 512s512-229.23 512-512z" />
<glyph unicode="&#xe90a;" d="M512 171.21c-152.048 0-276.17 124.121-276.17 276.17 0 152.669 124.121 276.17 276.17 276.17s276.17-124.121 276.17-276.17c0-152.048-123.501-276.17-276.17-276.17zM512 692.519c-134.672 0-245.139-109.847-245.139-245.139s109.847-245.139 245.139-245.139c135.292 0 245.139 109.847 245.139 245.139s-109.847 245.139-245.139 245.139z" />
<glyph unicode="&#xe90b;" d="M512 325.741c-8.688 0-15.515 6.827-15.515 15.515v212.868c0 8.688 6.827 15.515 15.515 15.515s15.515-6.827 15.515-15.515v-212.868c0-8.688-6.827-15.515-15.515-15.515z" />
<glyph unicode="&#xe90c;" d="M618.744 431.864h-212.868c-8.688 0-15.515 6.827-15.515 15.515s6.827 15.515 15.515 15.515h212.868c8.688 0 15.515-6.827 15.515-15.515s-6.827-15.515-15.515-15.515z" />
<glyph unicode="&#xe90d;" d="M1024 448c0-282.77-229.23-512-512-512s-512 229.23-512 512c0 282.77 229.23 512 512 512s512-229.23 512-512z" />
<glyph unicode="&#xe90e;" d="M379.19 438.691c-87.505 0-158.255 70.749-158.255 158.255 0 8.688 6.827 15.515 15.515 15.515s15.515-6.827 15.515-15.515c0-70.128 57.096-127.224 127.224-127.224s127.224 57.096 127.224 127.224c0 8.688 6.827 15.515 15.515 15.515s15.515-6.827 15.515-15.515c0-87.505-70.749-158.255-158.255-158.255z" />
<glyph unicode="&#xe90f;" d="M650.395 438.691c-87.505 0-158.255 71.37-158.255 158.255 0 8.688 6.827 15.515 15.515 15.515s15.515-6.827 15.515-15.515c0-70.128 57.096-127.224 127.224-127.224s127.224 57.096 127.224 127.224c0 8.688 6.827 15.515 15.515 15.515s15.515-6.827 15.515-15.515c0-86.885-71.37-158.255-158.255-158.255z" />
<glyph unicode="&#xe910;" d="M577.784 186.104c-7.447 0-14.274 5.585-15.515 13.033l-64.543 395.326c-1.241 8.688 4.344 16.136 13.033 17.998 8.688 1.241 16.136-4.344 17.998-13.033l64.543-395.947c1.241-8.688-4.344-16.136-13.033-17.998-1.241 0.621-1.862 0.621-2.482 0.621z" />
<glyph unicode="&#xe911;" d="M448.078 186.104c-0.621 0-1.862 0-2.482 0-8.688 1.241-14.274 9.309-13.033 17.998l65.164 395.947c1.241 8.688 9.309 14.274 17.998 13.033s14.274-9.309 13.033-17.998l-64.543-395.947c-1.862-8.068-8.688-13.033-16.136-13.033z" />
<glyph unicode="&#xe912;" d="M299.753 187.345c-7.447 0-14.274 5.585-15.515 13.033l-60.199 361.813c-3.103 23.583-4.965 47.166-4.965 70.749v61.44c0 8.688 6.827 15.515 15.515 15.515s15.515-6.827 15.515-15.515v-61.44c0-21.721 1.862-44.063 4.344-65.784l59.578-361.813c1.241-8.688-4.344-16.136-13.033-17.998 0 0-0.621 0-1.241 0z" />
<glyph unicode="&#xe913;" d="M729.212 186.104c-0.621 0-1.862 0-2.482 0-8.688 1.241-14.274 9.309-13.033 17.998l60.199 361.813c3.103 21.101 4.344 43.442 4.344 65.164v61.44c0 8.688 6.827 15.515 15.515 15.515s15.515-6.827 15.515-15.515v-61.44c0-23.583-1.862-47.166-4.965-70.128l-60.199-362.434c-0.621-7.447-7.447-12.412-14.895-12.412z" />
<glyph unicode="&#xe914;" d="M459.248 639.147h112.95v-99.297h-112.95v99.297z" />
<glyph unicode="&#xe915;" d="M580.887 552.882c-0.621 1.862-2.482 3.724-4.965 3.724v0h-41.581l-17.998 47.166c-0.621 1.862-2.482 3.103-4.965 3.103 0 0 0 0 0 0-1.862 0-4.344-1.241-4.965-3.724l-14.274-47.166h-50.269c-2.482 0-4.344-1.241-4.965-3.724-0.621-1.862 0-4.344 1.862-5.585l41.581-26.686-13.653-43.442c-0.621-1.862 0-4.344 1.862-5.585s4.344-1.241 6.206 0l37.857 27.927 43.442-27.927c0.621-0.621 1.862-0.621 2.482-0.621 1.241 0 2.482 0.621 3.103 1.241 1.862 1.241 2.482 3.724 1.241 5.585l-16.756 46.545 32.272 23.583c1.862 1.241 3.103 3.724 2.482 5.585z" />
<glyph unicode="&#xe916;" d="M507.656-48.485c-273.687 0-496.485 222.798-496.485 496.485s222.798 496.485 496.485 496.485 496.485-222.798 496.485-496.485-222.177-496.485-496.485-496.485z" />
<glyph unicode="&#xe917;" d="M507.656 928.97c264.999 0 480.97-215.971 480.97-480.97s-215.35-480.97-480.97-480.97-480.97 215.35-480.97 480.97 215.971 480.97 480.97 480.97zM507.656 960c-282.376 0-512-229.624-512-512 0-282.996 229.004-512 512-512s512 229.004 512 512c0 282.376-229.004 512-512 512v0z" />
<glyph unicode="&#xe918;" d="M379.19 438.691c-87.505 0-158.255 70.749-158.255 158.255 0 8.688 6.827 15.515 15.515 15.515s15.515-6.827 15.515-15.515c0-70.128 57.096-127.224 127.224-127.224s127.224 57.096 127.224 127.224c0 8.688 6.827 15.515 15.515 15.515s15.515-6.827 15.515-15.515c0-87.505-70.749-158.255-158.255-158.255z" />
<glyph unicode="&#xe919;" d="M650.395 438.691c-87.505 0-158.255 71.37-158.255 158.255 0 8.688 6.827 15.515 15.515 15.515s15.515-6.827 15.515-15.515c0-70.128 57.096-127.224 127.224-127.224s127.224 57.096 127.224 127.224c0 8.688 6.827 15.515 15.515 15.515s15.515-6.827 15.515-15.515c0-86.885-71.37-158.255-158.255-158.255z" />
<glyph unicode="&#xe91a;" d="M577.784 186.104c-7.447 0-14.274 5.585-15.515 13.033l-64.543 395.326c-1.241 8.688 4.344 16.136 13.033 17.998 8.688 1.241 16.136-4.344 17.998-13.033l64.543-395.947c1.241-8.688-4.344-16.136-13.033-17.998-1.241 0.621-1.862 0.621-2.482 0.621z" />
<glyph unicode="&#xe91b;" d="M448.078 186.104c-0.621 0-1.862 0-2.482 0-8.688 1.241-14.274 9.309-13.033 17.998l65.164 395.947c1.241 8.688 9.309 14.274 17.998 13.033s14.274-9.309 13.033-17.998l-64.543-395.947c-1.862-8.068-8.688-13.033-16.136-13.033z" />
<glyph unicode="&#xe91c;" d="M299.753 187.345c-7.447 0-14.274 5.585-15.515 13.033l-60.199 361.813c-3.103 23.583-4.965 47.166-4.965 70.749v61.44c0 8.688 6.827 15.515 15.515 15.515s15.515-6.827 15.515-15.515v-61.44c0-21.721 1.862-44.063 4.344-65.784l59.578-361.813c1.241-8.688-4.344-16.136-13.033-17.998 0 0-0.621 0-1.241 0z" />
<glyph unicode="&#xe91d;" d="M729.212 186.104c-0.621 0-1.862 0-2.482 0-8.688 1.241-14.274 9.309-13.033 17.998l60.199 361.813c3.103 21.101 4.344 43.442 4.344 65.164v61.44c0 8.688 6.827 15.515 15.515 15.515s15.515-6.827 15.515-15.515v-61.44c0-23.583-1.862-47.166-4.965-70.128l-60.199-362.434c-0.621-7.447-7.447-12.412-14.895-12.412z" />
<glyph unicode="&#xe91e;" d="M459.248 639.147h112.95v-99.297h-112.95v99.297z" />
<glyph unicode="&#xe91f;" d="M580.887 552.882c-0.621 1.862-2.482 3.724-4.965 3.724v0h-41.581l-17.998 47.166c-0.621 1.862-2.482 3.103-4.965 3.103 0 0 0 0 0 0-1.862 0-4.344-1.241-4.965-3.724l-14.274-47.166h-50.269c-2.482 0-4.344-1.241-4.965-3.724-0.621-1.862 0-4.344 1.862-5.585l41.581-26.686-13.653-43.442c-0.621-1.862 0-4.344 1.862-5.585s4.344-1.241 6.206 0l37.857 27.927 43.442-27.927c0.621-0.621 1.862-0.621 2.482-0.621 1.241 0 2.482 0.621 3.103 1.241 1.862 1.241 2.482 3.724 1.241 5.585l-16.756 46.545 32.272 23.583c1.862 1.241 3.103 3.724 2.482 5.585z" />
<glyph unicode="&#xe920;" d="M1025.241 447.379c0-282.77-229.23-512-512-512s-512 229.23-512 512c0 282.77 229.23 512 512 512s512-229.23 512-512z" />
<glyph unicode="&#xe921;" d="M379.19 438.691c-87.505 0-158.255 70.749-158.255 158.255 0 8.688 6.827 15.515 15.515 15.515s15.515-6.827 15.515-15.515c0-70.128 57.096-127.224 127.224-127.224s127.224 57.096 127.224 127.224c0 8.688 6.827 15.515 15.515 15.515s15.515-6.827 15.515-15.515c0-87.505-70.749-158.255-158.255-158.255z" />
<glyph unicode="&#xe922;" d="M650.395 438.691c-87.505 0-158.255 71.37-158.255 158.255 0 8.688 6.827 15.515 15.515 15.515s15.515-6.827 15.515-15.515c0-70.128 57.096-127.224 127.224-127.224s127.224 57.096 127.224 127.224c0 8.688 6.827 15.515 15.515 15.515s15.515-6.827 15.515-15.515c0-86.885-71.37-158.255-158.255-158.255z" />
<glyph unicode="&#xe923;" d="M577.784 186.104c-7.447 0-14.274 5.585-15.515 13.033l-64.543 395.326c-1.241 8.688 4.344 16.136 13.033 17.998 8.688 1.241 16.136-4.344 17.998-13.033l64.543-395.947c1.241-8.688-4.344-16.136-13.033-17.998-1.241 0.621-1.862 0.621-2.482 0.621z" />
<glyph unicode="&#xe924;" d="M448.078 186.104c-0.621 0-1.862 0-2.482 0-8.688 1.241-14.274 9.309-13.033 17.998l65.164 395.947c1.241 8.688 9.309 14.274 17.998 13.033s14.274-9.309 13.033-17.998l-64.543-395.947c-1.862-8.068-8.688-13.033-16.136-13.033z" />
<glyph unicode="&#xe925;" d="M299.753 187.345c-7.447 0-14.274 5.585-15.515 13.033l-60.199 361.813c-3.103 23.583-4.965 47.166-4.965 70.749v61.44c0 8.688 6.827 15.515 15.515 15.515s15.515-6.827 15.515-15.515v-61.44c0-21.721 1.862-44.063 4.344-65.784l59.578-361.813c1.241-8.688-4.344-16.136-13.033-17.998 0 0-0.621 0-1.241 0z" />
<glyph unicode="&#xe926;" d="M729.212 186.104c-0.621 0-1.862 0-2.482 0-8.688 1.241-14.274 9.309-13.033 17.998l60.199 361.813c3.103 21.101 4.344 43.442 4.344 65.164v61.44c0 8.688 6.827 15.515 15.515 15.515s15.515-6.827 15.515-15.515v-61.44c0-23.583-1.862-47.166-4.965-70.128l-60.199-362.434c-0.621-7.447-7.447-12.412-14.895-12.412z" />
<glyph unicode="&#xe927;" d="M459.248 639.147h112.95v-99.297h-112.95v99.297z" />
<glyph unicode="&#xe928;" d="M580.887 552.882c-0.621 1.862-2.482 3.724-4.965 3.724v0h-41.581l-17.998 47.166c-0.621 1.862-2.482 3.103-4.965 3.103 0 0 0 0 0 0-1.862 0-4.344-1.241-4.965-3.724l-14.274-47.166h-50.269c-2.482 0-4.344-1.241-4.965-3.724-0.621-1.862 0-4.344 1.862-5.585l41.581-26.686-13.653-43.442c-0.621-1.862 0-4.344 1.862-5.585s4.344-1.241 6.206 0l37.857 27.927 43.442-27.927c0.621-0.621 1.862-0.621 2.482-0.621 1.241 0 2.482 0.621 3.103 1.241 1.862 1.241 2.482 3.724 1.241 5.585l-16.756 46.545 32.272 23.583c1.862 1.241 3.103 3.724 2.482 5.585z" />
<glyph unicode="&#xe929;" d="M512-48.485c-273.687 0-496.485 222.798-496.485 496.485s222.798 496.485 496.485 496.485 496.485-222.798 496.485-496.485-222.798-496.485-496.485-496.485z" />
<glyph unicode="&#xe92a;" d="M512 928.97c264.999 0 480.97-215.35 480.97-480.97s-215.971-480.97-480.97-480.97-480.97 215.971-480.97 480.97 215.971 480.97 480.97 480.97zM512 960c-282.996 0-512-229.004-512-512s229.004-512 512-512 512 229.624 512 512-229.004 512-512 512v0z" />
<glyph unicode="&#xe92b;" d="M379.19 438.691c-87.505 0-158.255 70.749-158.255 158.255 0 8.688 6.827 15.515 15.515 15.515s15.515-6.827 15.515-15.515c0-70.128 57.096-127.224 127.224-127.224s127.224 57.096 127.224 127.224c0 8.688 6.827 15.515 15.515 15.515s15.515-6.827 15.515-15.515c0-87.505-70.749-158.255-158.255-158.255z" />
<glyph unicode="&#xe92c;" d="M650.395 438.691c-87.505 0-158.255 71.37-158.255 158.255 0 8.688 6.827 15.515 15.515 15.515s15.515-6.827 15.515-15.515c0-70.128 57.096-127.224 127.224-127.224s127.224 57.096 127.224 127.224c0 8.688 6.827 15.515 15.515 15.515s15.515-6.827 15.515-15.515c0-86.885-71.37-158.255-158.255-158.255z" />
<glyph unicode="&#xe92d;" d="M577.784 186.104c-7.447 0-14.274 5.585-15.515 13.033l-64.543 395.326c-1.241 8.688 4.344 16.136 13.033 17.998 8.688 1.241 16.136-4.344 17.998-13.033l64.543-395.947c1.241-8.688-4.344-16.136-13.033-17.998-1.241 0.621-1.862 0.621-2.482 0.621z" />
<glyph unicode="&#xe92e;" d="M448.078 186.104c-0.621 0-1.862 0-2.482 0-8.688 1.241-14.274 9.309-13.033 17.998l65.164 395.947c1.241 8.688 9.309 14.274 17.998 13.033s14.274-9.309 13.033-17.998l-64.543-395.947c-1.862-8.068-8.688-13.033-16.136-13.033z" />
<glyph unicode="&#xe92f;" d="M299.753 187.345c-7.447 0-14.274 5.585-15.515 13.033l-60.199 361.813c-3.103 23.583-4.965 47.166-4.965 70.749v61.44c0 8.688 6.827 15.515 15.515 15.515s15.515-6.827 15.515-15.515v-61.44c0-21.721 1.862-44.063 4.344-65.784l59.578-361.813c1.241-8.688-4.344-16.136-13.033-17.998 0 0-0.621 0-1.241 0z" />
<glyph unicode="&#xe930;" d="M729.212 186.104c-0.621 0-1.862 0-2.482 0-8.688 1.241-14.274 9.309-13.033 17.998l60.199 361.813c3.103 21.101 4.344 43.442 4.344 65.164v61.44c0 8.688 6.827 15.515 15.515 15.515s15.515-6.827 15.515-15.515v-61.44c0-23.583-1.862-47.166-4.965-70.128l-60.199-362.434c-0.621-7.447-7.447-12.412-14.895-12.412z" />
<glyph unicode="&#xe931;" d="M459.248 639.147h112.95v-99.297h-112.95v99.297z" />
<glyph unicode="&#xe932;" d="M580.887 552.882c-0.621 1.862-2.482 3.724-4.965 3.724v0h-41.581l-17.998 47.166c-0.621 1.862-2.482 3.103-4.965 3.103 0 0 0 0 0 0-1.862 0-4.344-1.241-4.965-3.724l-14.274-47.166h-50.269c-2.482 0-4.344-1.241-4.965-3.724-0.621-1.862 0-4.344 1.862-5.585l41.581-26.686-13.653-43.442c-0.621-1.862 0-4.344 1.862-5.585s4.344-1.241 6.206 0l37.857 27.927 43.442-27.927c0.621-0.621 1.862-0.621 2.482-0.621 1.241 0 2.482 0.621 3.103 1.241 1.862 1.241 2.482 3.724 1.241 5.585l-16.756 46.545 32.272 23.583c1.862 1.241 3.103 3.724 2.482 5.585z" />
<glyph unicode="&#xe933;" d="M1024 448c0-282.77-229.23-512-512-512s-512 229.23-512 512c0 282.77 229.23 512 512 512s512-229.23 512-512z" />
<glyph unicode="&#xe934;" d="M462.972 477.789c0-28.448-23.062-51.51-51.51-51.51s-51.51 23.062-51.51 51.51c0 28.448 23.062 51.51 51.51 51.51s51.51-23.062 51.51-51.51z" />
<glyph unicode="&#xe935;" d="M658.463 477.789c0-28.448-23.062-51.51-51.51-51.51s-51.51 23.062-51.51 51.51c0 28.448 23.062 51.51 51.51 51.51s51.51-23.062 51.51-51.51z" />
<glyph unicode="&#xe936;" d="M457.387 358.012c0-28.548 22.962-91.229 51.51-91.229s51.51 62.061 51.51 91.229c0 28.548-22.962 51.51-51.51 51.51s-51.51-22.962-51.51-51.51z" />
<glyph unicode="&#xe937;" d="M508.897 202.24c-8.688 0-15.515 6.827-15.515 15.515v140.257c0 8.688 6.827 15.515 15.515 15.515s15.515-6.827 15.515-15.515v-140.257c0-8.688-6.827-15.515-15.515-15.515z" />
<glyph unicode="&#xe938;" d="M229.004 302.158c-24.204 0-45.925 15.515-53.372 39.719-9.309 31.030-14.274 63.922-14.274 96.194 0 130.948 76.335 248.242 198.594 306.579 27.927 13.033 61.44 1.241 74.473-26.686s1.241-61.44-26.686-74.473c-83.161-39.098-134.672-117.915-134.672-205.421 0-21.721 3.103-43.442 9.309-63.922 9.309-29.789-7.447-60.819-37.236-69.508-4.965-1.862-10.55-2.482-16.136-2.482z" />
<glyph unicode="&#xe939;" d="M794.996 302.158c-5.585 0-11.171 0.621-16.136 2.482-29.789 9.309-45.925 40.339-37.236 69.508 6.206 20.48 9.309 42.201 9.309 63.922 0 87.505-51.51 166.322-134.051 205.421-27.927 13.033-39.719 46.545-26.686 74.473s46.545 39.719 74.473 26.686c121.639-58.337 197.973-175.632 197.973-306.579 0-32.892-4.965-65.164-14.274-96.194-7.447-24.204-29.789-39.719-53.372-39.719z" />
<glyph unicode="&#xe93a;" d="M431.942 186.725c-31.651 0-60.819 6.206-78.817 16.136-7.447 4.344-9.93 13.653-5.585 21.101s13.653 9.93 21.101 5.585c13.653-8.068 40.339-12.412 68.267-11.792 26.065 0.621 50.269 5.585 64.543 13.033 7.447 4.344 16.756 1.241 21.101-6.206s1.241-16.756-6.206-21.101c-18.618-9.93-47.787-16.136-78.817-16.756-1.862 0-3.724 0-5.585 0z" />
<glyph unicode="&#xe93b;" d="M584.611 186.725c-31.651 0-60.819 6.206-78.817 16.136-7.447 4.344-9.93 13.653-5.585 21.101s13.653 9.93 21.101 5.585c13.653-8.068 40.339-12.412 68.267-11.792 26.065 0.621 50.269 5.585 64.543 13.033 7.447 4.344 16.756 1.241 21.101-6.206s1.241-16.756-6.206-21.101c-18.618-9.93-47.787-16.136-78.817-16.756-1.862 0-3.724 0-5.585 0z" />
<glyph unicode="&#xe93c;" d="M512-48.485c-273.687 0-496.485 222.798-496.485 496.485s222.798 496.485 496.485 496.485 496.485-222.798 496.485-496.485-222.798-496.485-496.485-496.485z" />
<glyph unicode="&#xe93d;" d="M512 928.97c264.999 0 480.97-215.35 480.97-480.97s-215.971-480.97-480.97-480.97-480.97 215.971-480.97 480.97 215.971 480.97 480.97 480.97zM512 960c-282.996 0-512-229.004-512-512 0-282.376 229.004-512 512-512s512 229.624 512 512c0 282.996-229.004 512-512 512v0z" />
<glyph unicode="&#xe93e;" d="M462.972 477.789c0-28.448-23.062-51.51-51.51-51.51s-51.51 23.062-51.51 51.51c0 28.448 23.062 51.51 51.51 51.51s51.51-23.062 51.51-51.51z" />
<glyph unicode="&#xe93f;" d="M658.463 477.789c0-28.448-23.062-51.51-51.51-51.51s-51.51 23.062-51.51 51.51c0 28.448 23.062 51.51 51.51 51.51s51.51-23.062 51.51-51.51z" />
<glyph unicode="&#xe940;" d="M457.387 358.012c0-28.548 22.962-91.229 51.51-91.229s51.51 62.061 51.51 91.229c0 28.548-22.962 51.51-51.51 51.51s-51.51-22.962-51.51-51.51z" />
<glyph unicode="&#xe941;" d="M508.897 202.24c-8.688 0-15.515 6.827-15.515 15.515v140.257c0 8.688 6.827 15.515 15.515 15.515s15.515-6.827 15.515-15.515v-140.257c0-8.688-6.827-15.515-15.515-15.515z" />
<glyph unicode="&#xe942;" d="M229.004 302.158c-24.204 0-45.925 15.515-53.372 39.719-9.309 31.030-14.274 63.922-14.274 96.194 0 130.948 76.335 248.242 198.594 306.579 27.927 13.033 61.44 1.241 74.473-26.686s1.241-61.44-26.686-74.473c-83.161-39.098-134.672-117.915-134.672-205.421 0-21.721 3.103-43.442 9.309-63.922 9.309-29.789-7.447-60.819-37.236-69.508-4.965-1.862-10.55-2.482-16.136-2.482z" />
<glyph unicode="&#xe943;" d="M794.996 302.158c-5.585 0-11.171 0.621-16.136 2.482-29.789 9.309-45.925 40.339-37.236 69.508 6.206 20.48 9.309 42.201 9.309 63.922 0 87.505-51.51 166.322-134.051 205.421-27.927 13.033-39.719 46.545-26.686 74.473s46.545 39.719 74.473 26.686c121.639-58.337 197.973-175.632 197.973-306.579 0-32.892-4.965-65.164-14.274-96.194-7.447-24.204-29.789-39.719-53.372-39.719z" />
<glyph unicode="&#xe944;" d="M431.942 186.725c-31.651 0-60.819 6.206-78.817 16.136-7.447 4.344-9.93 13.653-5.585 21.101s13.653 9.93 21.101 5.585c13.653-8.068 40.339-12.412 68.267-11.792 26.065 0.621 50.269 5.585 64.543 13.033 7.447 4.344 16.756 1.241 21.101-6.206s1.241-16.756-6.206-21.101c-18.618-9.93-47.787-16.136-78.817-16.756-1.862 0-3.724 0-5.585 0z" />
<glyph unicode="&#xe945;" d="M584.611 186.725c-31.651 0-60.819 6.206-78.817 16.136-7.447 4.344-9.93 13.653-5.585 21.101s13.653 9.93 21.101 5.585c13.653-8.068 40.339-12.412 68.267-11.792 26.065 0.621 50.269 5.585 64.543 13.033 7.447 4.344 16.756 1.241 21.101-6.206s1.241-16.756-6.206-21.101c-18.618-9.93-47.787-16.136-78.817-16.756-1.862 0-3.724 0-5.585 0z" />
<glyph unicode="&#xe946;" d="M1024 448c0-282.77-229.23-512-512-512s-512 229.23-512 512c0 282.77 229.23 512 512 512s512-229.23 512-512z" />
<glyph unicode="&#xe947;" d="M462.972 477.789c0-28.448-23.062-51.51-51.51-51.51s-51.51 23.062-51.51 51.51c0 28.448 23.062 51.51 51.51 51.51s51.51-23.062 51.51-51.51z" />
<glyph unicode="&#xe948;" d="M658.463 477.789c0-28.448-23.062-51.51-51.51-51.51s-51.51 23.062-51.51 51.51c0 28.448 23.062 51.51 51.51 51.51s51.51-23.062 51.51-51.51z" />
<glyph unicode="&#xe949;" d="M457.387 358.012c0-28.548 22.962-91.229 51.51-91.229s51.51 62.061 51.51 91.229c0 28.548-22.962 51.51-51.51 51.51s-51.51-22.962-51.51-51.51z" />
<glyph unicode="&#xe94a;" d="M508.897 202.24c-8.688 0-15.515 6.827-15.515 15.515v140.257c0 8.688 6.827 15.515 15.515 15.515s15.515-6.827 15.515-15.515v-140.257c0-8.688-6.827-15.515-15.515-15.515z" />
<glyph unicode="&#xe94b;" d="M229.004 302.158c-24.204 0-45.925 15.515-53.372 39.719-9.309 31.030-14.274 63.922-14.274 96.194 0 130.948 76.335 248.242 198.594 306.579 27.927 13.033 61.44 1.241 74.473-26.686s1.241-61.44-26.686-74.473c-83.161-39.098-134.672-117.915-134.672-205.421 0-21.721 3.103-43.442 9.309-63.922 9.309-29.789-7.447-60.819-37.236-69.508-4.965-1.862-10.55-2.482-16.136-2.482z" />
<glyph unicode="&#xe94c;" d="M794.996 302.158c-5.585 0-11.171 0.621-16.136 2.482-29.789 9.309-45.925 40.339-37.236 69.508 6.206 20.48 9.309 42.201 9.309 63.922 0 87.505-51.51 166.322-134.051 205.421-27.927 13.033-39.719 46.545-26.686 74.473s46.545 39.719 74.473 26.686c121.639-58.337 197.973-175.632 197.973-306.579 0-32.892-4.965-65.164-14.274-96.194-7.447-24.204-29.789-39.719-53.372-39.719z" />
<glyph unicode="&#xe94d;" d="M432.562 186.725c-31.651 0-60.819 6.206-78.817 16.136-7.447 4.344-9.93 13.653-5.585 21.101s13.653 9.93 21.101 5.585c13.653-8.068 40.339-12.412 68.267-11.792 26.065 0.621 50.269 5.585 64.543 13.033 7.447 4.344 16.756 1.241 21.101-6.206s1.241-16.756-6.206-21.101c-18.618-9.93-47.787-16.136-78.817-16.756-2.482 0-4.344 0-5.585 0z" />
<glyph unicode="&#xe94e;" d="M584.611 186.725c-31.651 0-60.819 6.206-78.817 16.136-7.447 4.344-9.93 13.653-5.585 21.101s13.653 9.93 21.101 5.585c13.653-8.068 40.339-12.412 68.267-11.792 26.065 0.621 50.269 5.585 64.543 13.033 7.447 4.344 16.756 1.241 21.101-6.206s1.241-16.756-6.206-21.101c-18.618-9.93-47.787-16.136-78.817-16.756-1.862 0-3.724 0-5.585 0z" />
<glyph unicode="&#xe94f;" d="M512-48.485c-273.687 0-496.485 222.798-496.485 496.485s222.798 496.485 496.485 496.485 496.485-222.798 496.485-496.485-222.798-496.485-496.485-496.485z" />
<glyph unicode="&#xe950;" d="M512 928.97c264.999 0 480.97-215.35 480.97-480.97s-215.971-480.97-480.97-480.97-480.97 215.971-480.97 480.97 215.971 480.97 480.97 480.97zM512 960c-282.996 0-512-229.004-512-512s229.004-512 512-512 512 229.624 512 512-229.004 512-512 512v0z" />
<glyph unicode="&#xe951;" d="M462.972 477.789c0-28.448-23.062-51.51-51.51-51.51s-51.51 23.062-51.51 51.51c0 28.448 23.062 51.51 51.51 51.51s51.51-23.062 51.51-51.51z" />
<glyph unicode="&#xe952;" d="M658.463 477.789c0-28.448-23.062-51.51-51.51-51.51s-51.51 23.062-51.51 51.51c0 28.448 23.062 51.51 51.51 51.51s51.51-23.062 51.51-51.51z" />
<glyph unicode="&#xe953;" d="M457.387 358.012c0-28.548 22.962-91.229 51.51-91.229s51.51 62.061 51.51 91.229c0 28.548-22.962 51.51-51.51 51.51s-51.51-22.962-51.51-51.51z" />
<glyph unicode="&#xe954;" d="M508.897 202.24c-8.688 0-15.515 6.827-15.515 15.515v140.257c0 8.688 6.827 15.515 15.515 15.515s15.515-6.827 15.515-15.515v-140.257c0-8.688-6.827-15.515-15.515-15.515z" />
<glyph unicode="&#xe955;" d="M229.004 302.158c-24.204 0-45.925 15.515-53.372 39.719-9.309 31.030-14.274 63.922-14.274 96.194 0 130.948 76.335 248.242 198.594 306.579 27.927 13.033 61.44 1.241 74.473-26.686s1.241-61.44-26.686-74.473c-83.161-39.098-134.672-117.915-134.672-205.421 0-21.721 3.103-43.442 9.309-63.922 9.309-29.789-7.447-60.819-37.236-69.508-4.965-1.862-10.55-2.482-16.136-2.482z" />
<glyph unicode="&#xe956;" d="M794.996 302.158c-5.585 0-11.171 0.621-16.136 2.482-29.789 9.309-45.925 40.339-37.236 69.508 6.206 20.48 9.309 42.201 9.309 63.922 0 87.505-51.51 166.322-134.051 205.421-27.927 13.033-39.719 46.545-26.686 74.473s46.545 39.719 74.473 26.686c121.639-58.337 197.973-175.632 197.973-306.579 0-32.892-4.965-65.164-14.274-96.194-7.447-24.204-29.789-39.719-53.372-39.719z" />
<glyph unicode="&#xe957;" d="M432.562 186.725c-31.651 0-60.819 6.206-78.817 16.136-7.447 4.344-9.93 13.653-5.585 21.101s13.653 9.93 21.101 5.585c13.653-8.068 40.339-12.412 68.267-11.792 26.065 0.621 50.269 5.585 64.543 13.033 7.447 4.344 16.756 1.241 21.101-6.206s1.241-16.756-6.206-21.101c-18.618-9.93-47.787-16.136-78.817-16.756-2.482 0-4.344 0-5.585 0z" />
<glyph unicode="&#xe958;" d="M584.611 186.725c-31.651 0-60.819 6.206-78.817 16.136-7.447 4.344-9.93 13.653-5.585 21.101s13.653 9.93 21.101 5.585c13.653-8.068 40.339-12.412 68.267-11.792 26.065 0.621 50.269 5.585 64.543 13.033 7.447 4.344 16.756 1.241 21.101-6.206s1.241-16.756-6.206-21.101c-18.618-9.93-47.787-16.136-78.817-16.756-1.862 0-3.724 0-5.585 0z" />
<glyph unicode="&#xe959;" d="M1024 447.379c0-282.77-229.23-512-512-512s-512 229.23-512 512c0 282.77 229.23 512 512 512s512-229.23 512-512z" />
<glyph unicode="&#xe95a;" d="M758.381 429.382c0 22.342-17.998 39.719-39.719 39.719-22.342 0-39.719-13.653-39.719-35.375v-13.033c-0.621-6.206-5.585-10.55-11.171-10.55-6.206 0-10.55 4.344-11.171 9.93v77.576c0 22.342-17.998 39.719-39.719 39.719-22.342 0-39.719-17.998-39.719-39.719v-78.817c-1.241-4.965-5.585-9.309-11.171-9.309-6.206 0-11.792 4.965-11.792 11.792v106.124c0 22.342-17.998 39.719-39.719 39.719-22.342 0-39.719-17.998-39.719-39.719v-108.606c-1.241-4.965-5.585-9.309-11.171-9.309-6.206 0-11.792 4.965-11.792 11.792v237.692c0 22.342-17.998 39.719-39.719 39.719s-39.719-17.998-39.719-39.719c0 0 3.103-333.265 1.241-333.886l-57.716 83.782c-14.274 20.48-42.822 26.065-63.302 11.792s-26.065-42.822-12.412-62.681l101.159-147.084c0.621-0.621 1.241-1.241 1.862-2.482 10.55-19.239 27.307-38.478 41.581-56.475 38.478-47.787 93.712-89.367 162.599-89.367 117.295 0 212.247 89.367 212.247 199.215-1.241 14.895-1.241 167.564-1.241 167.564z" />
<glyph unicode="&#xe95b;" d="M475.384 791.195c-0.621 1.862-2.482 3.724-4.965 3.724v0h-41.581l-17.998 47.166c-0.621 1.862-2.482 3.103-4.965 3.103 0 0 0 0 0 0-1.862 0-4.344-1.241-4.965-3.724l-14.274-47.166h-50.269c-2.482 0-4.344-1.241-4.965-3.724-0.621-1.862 0-4.344 1.862-5.585l41.581-26.686-13.653-43.442c-0.621-1.862 0-4.344 1.862-5.585s4.344-1.241 6.206 0l37.857 27.927 43.442-27.927c0.621-0.621 1.862-0.621 2.482-0.621 1.241 0 2.482 0.621 3.103 1.241 1.862 1.241 2.482 3.724 1.241 5.585l-16.756 45.925 32.272 23.583c1.862 1.862 3.103 3.724 2.482 6.206z" />
<glyph unicode="&#xe95c;" d="M512-49.105c-273.687 0-496.485 222.798-496.485 496.485s222.798 496.485 496.485 496.485 496.485-222.798 496.485-496.485-222.798-496.485-496.485-496.485z" />
<glyph unicode="&#xe95d;" d="M512 928.349c264.999 0 480.97-215.971 480.97-480.97s-215.971-480.97-480.97-480.97-480.97 215.971-480.97 480.97 215.971 480.97 480.97 480.97zM512 959.379c-282.376 0-512-229.004-512-512s229.004-512 512-512 512 229.624 512 512-229.004 512-512 512v0z" />
<glyph unicode="&#xe95e;" d="M758.381 429.382c0 22.342-17.998 39.719-39.719 39.719-22.342 0-39.719-13.653-39.719-35.375v-13.033c-0.621-6.206-5.585-10.55-11.171-10.55-6.206 0-10.55 4.344-11.171 9.93v77.576c0 22.342-17.998 39.719-39.719 39.719-22.342 0-39.719-17.998-39.719-39.719v-78.817c-1.241-4.965-5.585-9.309-11.171-9.309-6.206 0-11.792 4.965-11.792 11.792v106.124c0 22.342-17.998 39.719-39.719 39.719-22.342 0-39.719-17.998-39.719-39.719v-108.606c-1.241-4.965-5.585-9.309-11.171-9.309-6.206 0-11.792 4.965-11.792 11.792v237.692c0 22.342-17.998 39.719-39.719 39.719s-39.719-17.998-39.719-39.719c0 0 3.103-333.265 1.241-333.886l-57.716 83.782c-14.274 20.48-42.822 26.065-63.302 11.792s-26.065-42.822-12.412-62.681l101.159-147.084c0.621-0.621 1.241-1.241 1.862-2.482 10.55-19.239 27.307-38.478 41.581-56.475 38.478-47.787 93.712-89.367 162.599-89.367 117.295 0 212.247 89.367 212.247 199.215-1.241 14.895-1.241 167.564-1.241 167.564z" />
<glyph unicode="&#xe95f;" d="M475.384 791.195c-0.621 1.862-2.482 3.724-4.965 3.724v0h-41.581l-17.998 47.166c-0.621 1.862-2.482 3.103-4.965 3.103 0 0 0 0 0 0-1.862 0-4.344-1.241-4.965-3.724l-14.274-47.166h-50.269c-2.482 0-4.344-1.241-4.965-3.724-0.621-1.862 0-4.344 1.862-5.585l41.581-26.686-13.653-43.442c-0.621-1.862 0-4.344 1.862-5.585s4.344-1.241 6.206 0l37.857 27.927 43.442-27.927c0.621-0.621 1.862-0.621 2.482-0.621 1.241 0 2.482 0.621 3.103 1.241 1.862 1.241 2.482 3.724 1.241 5.585l-16.756 45.925 32.272 23.583c1.862 1.862 3.103 3.724 2.482 6.206z" />
<glyph unicode="&#xe960;" d="M1024 447.379c0-282.77-229.23-512-512-512s-512 229.23-512 512c0 282.77 229.23 512 512 512s512-229.23 512-512z" />
<glyph unicode="&#xe961;" d="M546.754 35.918c-80.679 0-139.636 51.51-174.39 94.953-2.482 3.103-4.965 6.206-7.447 9.309-12.412 15.515-25.445 31.030-34.754 47.787-0.621 0.621-1.241 1.241-1.862 2.482l-101.159 147.084c-18.618 27.307-11.792 65.164 16.136 83.782 13.653 9.309 29.789 12.412 45.925 9.93 16.136-3.103 29.789-11.792 39.098-25.445l29.789-43.442c0 67.646-1.241 193.008-1.862 284.238 0 30.41 24.824 55.855 55.234 55.855s55.234-24.824 55.234-55.234v-101.779c9.93 15.515 27.307 26.686 47.166 26.686 30.41 0 55.234-24.824 55.234-55.234v-0.621c9.93 16.136 27.307 26.686 47.166 26.686 30.41 0 55.234-24.824 55.234-55.234v-35.995c9.309 14.274 26.686 22.962 47.166 22.962 30.41 0 55.234-24.824 55.234-55.234v-166.943c0-120.398-101.779-216.592-227.142-216.592zM353.125 208.446c0.621-0.621 1.241-1.241 1.862-1.862s1.241-1.241 1.241-2.482c8.068-14.895 20.48-29.789 32.272-44.063 2.482-3.103 4.965-6.206 8.068-9.309 31.030-37.857 81.92-83.161 150.187-83.161 108.606 0 196.732 82.541 196.732 183.699v166.322c0 13.653-11.171 24.204-24.204 24.204-11.171 0-24.204-4.965-24.204-19.859v-13.653c0-0.621 0-0.621 0-1.241-1.241-14.274-13.033-24.824-26.686-24.824s-24.824 9.93-26.686 23.583c0 0.621 0 1.241 0 1.862v78.196c0 13.653-11.171 24.204-24.204 24.204s-24.204-11.171-24.204-24.204v-78.817c0-1.241 0-2.482-0.621-3.103-3.103-12.412-13.653-21.101-26.065-21.101-14.895 0-27.307 12.412-27.307 27.307v105.503c0 13.653-11.171 24.204-24.204 24.204-13.653 0-24.204-11.171-24.204-24.204v-108.606c0-1.241 0-2.482-0.621-3.103-3.103-12.412-13.653-21.101-26.065-21.101-14.895 0-27.307 12.412-27.307 27.307v236.451c0 13.653-11.171 24.204-24.204 24.204-13.653 0-24.204-11.171-24.204-24.204 0 0 0.621-83.161 1.241-166.943 0-41.581 0.621-83.161 0.621-114.812 0-15.515 0-28.548 0-37.857 0-17.998 0-27.307-13.653-29.789-5.585-0.621-11.792 1.862-14.895 6.827l-57.716 83.782c-4.344 6.827-11.171 11.171-19.239 12.412s-16.136 0-22.342-4.965c-13.653-9.309-17.377-27.927-8.068-40.96l98.676-145.842z" />
<glyph unicode="&#xe962;" d="M475.384 791.195c-0.621 1.862-2.482 3.724-4.965 3.724v0h-41.581l-17.998 47.166c-0.621 1.862-2.482 3.103-4.965 3.103 0 0 0 0 0 0-1.862 0-4.344-1.241-4.965-3.724l-14.274-47.166h-50.269c-2.482 0-4.344-1.241-4.965-3.724-0.621-1.862 0-4.344 1.862-5.585l41.581-26.686-13.653-43.442c-0.621-1.862 0-4.344 1.862-5.585s4.344-1.241 6.206 0l37.857 27.927 43.442-27.927c0.621-0.621 1.862-0.621 2.482-0.621 1.241 0 2.482 0.621 3.103 1.241 1.862 1.241 2.482 3.724 1.241 5.585l-16.756 45.925 32.272 23.583c1.862 1.862 3.103 3.724 2.482 6.206z" />
<glyph unicode="&#xe963;" d="M512-49.105c-273.687 0-496.485 222.798-496.485 496.485s222.798 496.485 496.485 496.485 496.485-222.798 496.485-496.485-222.798-496.485-496.485-496.485z" />
<glyph unicode="&#xe964;" d="M512 928.349c264.999 0 480.97-215.971 480.97-480.97s-215.971-480.97-480.97-480.97-480.97 215.971-480.97 480.97 215.971 480.97 480.97 480.97zM512 959.379c-282.376 0-512-229.004-512-512s229.004-512 512-512 512 229.624 512 512-229.004 512-512 512v0z" />
<glyph unicode="&#xe965;" d="M546.754 42.124c-80.679 0-139.636 51.51-174.39 94.953-2.482 3.103-4.965 6.206-7.447 9.309-12.412 15.515-25.445 31.030-34.754 47.787-0.621 0.621-1.241 1.241-1.862 2.482l-101.779 147.084c-18.618 27.307-11.792 65.164 16.136 83.782 13.653 9.309 29.789 12.412 45.925 9.93 16.136-3.103 29.789-11.792 39.098-25.445l29.789-43.442c0 67.646-1.241 193.008-1.862 284.238 0 30.41 24.824 55.855 55.234 55.855s55.234-24.824 55.234-55.234v-101.779c9.93 15.515 27.307 26.686 47.166 26.686 30.41 0 55.234-24.824 55.234-55.234v-0.621c9.93 16.136 27.307 26.686 47.166 26.686 30.41 0 55.234-24.824 55.234-55.234v-35.995c9.309 14.274 26.686 22.962 47.166 22.962 30.41 0 55.234-24.824 55.234-55.234v-166.943c0.621-120.398-101.159-216.592-226.521-216.592zM353.125 214.652c0.621-0.621 1.241-1.241 1.862-1.862s1.241-1.241 1.241-2.482c8.068-14.895 20.48-29.789 32.272-44.063 2.482-3.103 4.965-6.206 8.068-9.309 31.030-37.857 81.92-83.161 150.187-83.161 108.606 0 196.732 82.541 196.732 183.699v166.322c0 13.653-11.171 24.204-24.204 24.204-11.171 0-24.204-4.965-24.204-19.859v-13.653c0-0.621 0-0.621 0-1.241-1.241-14.274-13.033-24.824-26.686-24.824s-24.824 9.93-26.686 23.583c0 0.621 0 1.241 0 1.862v78.196c0 13.653-11.171 24.204-24.204 24.204s-24.204-11.171-24.204-24.204v-78.817c0-1.241 0-2.482-0.621-3.103-3.103-12.412-13.653-21.101-26.065-21.101-14.895 0-27.307 12.412-27.307 27.307v105.503c0 13.653-11.171 24.204-24.204 24.204-13.653 0-24.204-11.171-24.204-24.204v-108.606c0-1.241 0-2.482-0.621-3.103-3.103-12.412-13.653-21.101-26.065-21.101-14.895 0-27.307 12.412-27.307 27.307v236.451c0 13.653-11.171 24.204-24.204 24.204-13.653 0-24.204-11.171-24.204-24.204 0 0 0.621-83.161 1.241-166.943 0-41.581 0.621-83.161 0.621-114.812 0-15.515 0-28.548 0-37.857 0-17.998 0-27.307-13.653-29.789-6.206-1.241-11.792 1.862-15.515 6.827l-57.716 83.782c-4.344 6.827-11.171 11.171-19.239 12.412s-16.136 0-22.342-4.965c-13.653-9.309-17.377-27.927-8.068-40.96l99.297-145.842z" />
<glyph unicode="&#xe966;" d="M475.384 797.401c-0.621 1.862-2.482 3.724-4.965 3.724v0h-41.581l-17.998 47.166c-0.621 1.862-2.482 3.103-4.965 3.103 0 0 0 0 0 0-1.862 0-4.344-1.241-4.965-3.724l-14.274-47.166h-50.269c-2.482 0-4.344-1.241-4.965-3.724-0.621-1.862 0-4.344 1.862-5.585l41.581-26.686-13.653-43.442c-0.621-1.862 0-4.344 1.862-5.585s4.344-1.241 6.206 0l37.857 27.927 43.442-27.927c0.621-0.621 1.862-0.621 2.482-0.621 1.241 0 2.482 0.621 3.103 1.241 1.862 1.241 2.482 3.724 1.241 5.585l-16.756 45.925 32.272 23.583c1.862 1.862 3.103 3.724 2.482 6.206z" />
<glyph unicode="&#xe967;" d="M1024 448c0-282.77-229.23-512-512-512s-512 229.23-512 512c0 282.77 229.23 512 512 512s512-229.23 512-512z" />
<glyph unicode="&#xe968;" d="M330.783 428.761v-31.030c30.41 0 58.337-13.653 76.955-36.616 34.133-42.822 27.927-104.882-14.895-139.636-17.998-14.274-39.098-22.342-62.061-22.342-30.41 0-58.337 13.653-76.955 36.616-34.133 42.822-27.927 104.882 14.895 139.636 17.998 14.274 39.098 22.342 62.061 22.342v31.030zM330.783 428.761c-28.548 0-57.716-9.309-81.92-29.168-55.855-45.304-64.543-127.224-19.239-183.079 25.445-31.651 63.302-48.407 101.159-48.407 28.548 0 57.716 9.309 81.92 29.168 55.855 45.304 64.543 127.224 19.239 183.079-25.445 32.272-63.302 48.407-101.159 48.407v0z" />
<glyph unicode="&#xe969;" d="M447.457 308.984l-19.239 24.204 37.857 30.41-41.581 51.51-37.857-30.41-19.239 24.204 49.648 40.339c3.103 2.482 7.447 3.724 11.171 3.103 4.344-0.621 8.068-2.482 10.55-5.585l60.819-75.714c5.585-6.827 4.344-16.136-2.482-21.721l-49.648-40.339z" />
<glyph unicode="&#xe96a;" d="M330.783 210.928c-25.445 0-50.89 11.171-68.887 32.892-30.41 37.857-24.824 93.091 13.033 124.121 17.998 14.895 40.96 21.721 64.543 19.239s44.684-13.653 58.958-32.272c14.895-17.998 21.721-40.96 19.239-64.543s-13.653-44.684-32.272-58.958v0c-15.515-14.274-34.754-20.48-54.613-20.48zM330.783 355.53c-13.033 0-25.445-4.344-35.995-12.412-24.204-19.859-28.548-55.855-8.688-80.058s55.855-28.548 80.058-8.688v0c11.792 9.309 19.239 22.962 21.101 38.478s-3.103 29.789-12.412 41.581c-9.309 11.792-22.962 19.239-38.478 21.101-1.862 0-3.724 0-5.585 0z" />
<glyph unicode="&#xe96b;" d="M693.838 696.242c29.789 0 57.716-13.033 76.955-35.995 34.754-42.201 28.548-104.882-13.653-139.636-17.998-14.895-39.719-22.342-62.681-22.342-29.789 0-57.716 13.033-76.955 35.995-34.754 42.201-28.548 104.882 13.653 139.636 17.377 14.895 39.098 22.342 62.681 22.342zM693.838 727.273c-29.168 0-58.337-9.93-82.541-29.789-55.855-45.925-63.302-127.845-17.998-183.079 26.065-31.030 63.302-47.787 100.538-47.787 29.168 0 58.337 9.93 82.541 29.789 55.855 45.925 63.302 127.845 17.998 183.079-26.065 31.651-63.302 47.787-100.538 47.787v0z" />
<glyph unicode="&#xe96c;" d="M600.747 440.553c-4.344 0-8.688 1.862-11.792 5.585l-61.44 75.093c-2.482 3.103-3.724 7.447-3.724 11.171s2.482 8.068 5.585 10.55l49.648 40.339 19.859-24.204-37.236-30.41 42.201-50.89 37.236 30.41 19.859-24.204-49.648-40.339c-3.103-1.862-6.827-3.103-10.55-3.103z" />
<glyph unicode="&#xe96d;" d="M693.838 508.819c-3.103 0-5.585 0-8.688 0.621-23.583 2.482-44.684 13.653-59.578 31.651-31.030 37.236-25.445 93.091 12.412 124.121 37.236 31.030 93.091 25.445 124.121-11.792 31.030-37.857 25.445-93.091-12.412-124.121v0c-16.136-13.033-35.375-20.48-55.855-20.48zM693.838 654.041c-13.033 0-25.445-4.344-35.995-13.033-24.204-19.859-27.927-55.855-8.068-80.058 9.93-11.792 23.583-19.239 38.478-20.48s29.789 3.103 41.581 13.033v0c24.204 19.859 27.927 55.855 8.068 80.058-11.171 13.653-27.927 20.48-44.063 20.48z" />
<glyph unicode="&#xe96e;" d="M490.899 410.143c-4.344 0-8.688 1.862-11.792 5.585-5.585 6.827-4.344 16.136 1.862 21.721l44.063 36.616c6.827 5.585 16.136 4.344 21.721-1.862s4.344-16.136-1.862-21.721l-44.063-36.616c-3.103-2.482-6.827-3.724-9.93-3.724z" />
<glyph unicode="&#xe96f;" d="M512-48.485c-273.687 0-496.485 222.798-496.485 496.485s222.798 496.485 496.485 496.485 496.485-222.798 496.485-496.485-222.177-496.485-496.485-496.485z" />
<glyph unicode="&#xe970;" d="M512 928.97c265.619 0 480.97-215.971 480.97-480.97s-215.35-480.97-480.97-480.97-480.97 215.971-480.97 480.97 215.971 480.97 480.97 480.97zM512 960c-282.376 0-512-229.004-512-512s229.624-512 512-512 512 229.004 512 512-229.004 512-512 512v0z" />
<glyph unicode="&#xe971;" d="M330.783 428.761v-31.030c30.41 0 58.337-13.653 76.955-36.616 34.133-42.822 27.927-104.882-14.895-139.636-17.998-14.274-39.098-22.342-62.061-22.342-30.41 0-58.337 13.653-76.955 36.616-34.133 42.822-27.927 104.882 14.895 139.636 17.998 14.274 39.098 22.342 62.061 22.342v31.030zM330.783 428.761c-28.548 0-57.716-9.309-81.92-29.168-55.855-45.304-64.543-127.224-19.239-183.079 25.445-31.651 63.302-48.407 101.159-48.407 28.548 0 57.716 9.309 81.92 29.168 55.855 45.304 64.543 127.224 19.239 183.079-25.445 32.272-63.302 48.407-101.159 48.407v0z" />
<glyph unicode="&#xe972;" d="M447.457 308.984l-19.239 24.204 37.857 30.41-41.581 51.51-37.857-30.41-19.239 24.204 49.648 40.339c3.103 2.482 7.447 3.724 11.171 3.103 4.344-0.621 8.068-2.482 10.55-5.585l60.819-75.714c5.585-6.827 4.344-16.136-2.482-21.721l-49.648-40.339z" />
<glyph unicode="&#xe973;" d="M330.783 210.928c-25.445 0-50.89 11.171-68.887 32.892-30.41 37.857-24.824 93.091 13.033 124.121 17.998 14.895 41.581 21.721 64.543 19.239 23.583-2.482 44.684-13.653 58.958-32.272 14.895-17.998 21.721-40.96 19.239-64.543s-13.653-44.684-32.272-58.958v0c-15.515-14.274-34.754-20.48-54.613-20.48zM330.783 355.53c-13.033 0-25.445-4.344-35.995-12.412-24.204-19.859-28.548-55.855-8.688-80.058s55.855-28.548 80.058-8.688v0c11.792 9.309 19.239 22.962 21.101 38.478s-3.103 29.789-12.412 41.581c-9.309 11.792-22.962 19.239-38.478 21.101-1.862 0-3.724 0-5.585 0z" />
<glyph unicode="&#xe974;" d="M693.838 696.242c29.789 0 57.716-13.033 76.955-35.995 34.754-42.201 28.548-104.882-13.653-139.636-17.998-14.895-39.719-22.342-62.681-22.342-29.789 0-57.716 13.033-76.955 35.995-34.754 42.201-28.548 104.882 13.653 139.636 17.377 14.895 39.098 22.342 62.681 22.342zM693.838 727.273c-29.168 0-58.337-9.93-82.541-29.789-55.855-45.925-63.302-127.845-17.998-183.079 26.065-31.030 63.302-47.787 100.538-47.787 29.168 0 58.337 9.93 82.541 29.789 55.855 45.925 63.302 127.845 17.998 183.079-26.065 31.651-63.302 47.787-100.538 47.787v0z" />
<glyph unicode="&#xe975;" d="M600.747 440.553c-4.344 0-8.688 1.862-11.792 5.585l-61.44 75.093c-2.482 3.103-3.724 7.447-3.724 11.171s2.482 8.068 5.585 10.55l49.648 40.339 19.859-24.204-37.236-30.41 42.201-50.89 37.236 30.41 19.859-24.204-49.648-40.339c-3.103-1.862-6.827-3.103-10.55-3.103z" />
<glyph unicode="&#xe976;" d="M693.838 508.819c-3.103 0-5.585 0-8.688 0.621-23.583 2.482-44.684 13.653-59.578 31.651-31.030 37.236-25.445 93.091 12.412 124.121 37.236 31.030 93.091 25.445 124.121-11.792 31.030-37.857 25.445-93.091-12.412-124.121v0c-16.136-13.033-35.375-20.48-55.855-20.48zM693.838 654.041c-13.033 0-25.445-4.344-35.995-13.033-24.204-19.859-27.927-55.855-8.068-80.058 9.93-11.792 23.583-19.239 38.478-20.48s29.789 3.103 41.581 13.033v0c24.204 19.859 27.927 55.855 8.068 80.058-11.171 13.653-27.927 20.48-44.063 20.48z" />
<glyph unicode="&#xe977;" d="M490.899 410.143c-4.344 0-8.688 1.862-11.792 5.585-5.585 6.827-4.344 16.136 1.862 21.721l44.063 36.616c6.827 5.585 16.136 4.344 21.721-1.862s4.344-16.136-1.862-21.721l-44.063-36.616c-3.103-2.482-6.827-3.724-9.93-3.724z" />
<glyph unicode="&#xe978;" d="M1027.103 446.138c0-282.77-229.23-512-512-512s-512 229.23-512 512c0 282.77 229.23 512 512 512s512-229.23 512-512z" />
<glyph unicode="&#xe979;" d="M787.549 567.777c0-39.416-31.953-71.37-71.37-71.37s-71.37 31.953-71.37 71.37c0 39.416 31.953 71.37 71.37 71.37s71.37-31.953 71.37-71.37z" />
<glyph unicode="&#xe97a;" d="M808.029 447.379c22.342 0 40.339-17.998 40.339-40.339s-17.998-40.339-40.339-40.339c-22.342 0-40.339 17.998-40.339 40.339 0 21.721 17.998 40.339 40.339 40.339zM808.029 478.41c-39.719 0-71.37-32.272-71.37-71.37 0-39.719 31.651-71.37 71.37-71.37s71.37 32.272 71.37 71.37c0 39.098-31.651 71.37-71.37 71.37v0z" />
<glyph unicode="&#xe97b;" d="M428.218 373.527h-290.444c-8.688 0-15.515 6.827-15.515 15.515s6.827 15.515 15.515 15.515h284.238l160.116 148.945c6.206 5.585 16.136 5.585 21.721-0.621s5.585-16.136-0.621-21.721l-164.461-153.29c-3.103-2.482-6.827-4.344-10.55-4.344z" />
<glyph unicode="&#xe97c;" d="M186.802 334.429c-3.724 0-7.447 1.241-9.93 3.724-6.206 5.585-7.447 15.515-1.862 21.721l124.742 144.601c2.482 3.103 6.827 4.965 10.55 5.585 4.344 0 8.068-1.241 11.171-3.724l155.152-139.636h221.556c8.688 0 15.515-6.827 15.515-15.515s-6.827-15.515-15.515-15.515h-227.142c-3.724 0-7.447 1.241-10.55 3.724l-147.704 132.81-114.192-132.81c-2.482-3.103-6.827-4.965-11.792-4.965z" />
<glyph unicode="&#xe97d;" d="M515.103-50.347c-273.687 0-496.485 222.798-496.485 496.485s222.798 496.485 496.485 496.485 496.485-222.798 496.485-496.485-222.798-496.485-496.485-496.485z" />
<glyph unicode="&#xe97e;" d="M515.103 927.108c264.999 0 480.97-215.971 480.97-480.97s-215.971-480.97-480.97-480.97-480.97 215.971-480.97 480.97 215.35 480.97 480.97 480.97zM515.103 958.138c-282.996 0-512-229.004-512-512s229.004-512 512-512 512 229.004 512 512-229.624 512-512 512v0z" />
<glyph unicode="&#xe97f;" d="M787.549 567.777c0-39.416-31.953-71.37-71.37-71.37s-71.37 31.953-71.37 71.37c0 39.416 31.953 71.37 71.37 71.37s71.37-31.953 71.37-71.37z" />
<glyph unicode="&#xe980;" d="M808.029 447.379c22.342 0 40.339-17.998 40.339-40.339s-17.998-40.339-40.339-40.339c-22.342 0-40.339 17.998-40.339 40.339 0 21.721 17.998 40.339 40.339 40.339zM808.029 478.41c-39.719 0-71.37-32.272-71.37-71.37 0-39.719 31.651-71.37 71.37-71.37s71.37 32.272 71.37 71.37c0 39.098-31.651 71.37-71.37 71.37v0z" />
<glyph unicode="&#xe981;" d="M428.218 373.527h-290.444c-8.688 0-15.515 6.827-15.515 15.515s6.827 15.515 15.515 15.515h284.238l160.116 148.945c6.206 5.585 16.136 5.585 21.721-0.621s5.585-16.136-0.621-21.721l-164.461-153.29c-3.103-2.482-6.827-4.344-10.55-4.344z" />
<glyph unicode="&#xe982;" d="M186.802 334.429c-3.724 0-7.447 1.241-9.93 3.724-6.206 5.585-7.447 15.515-1.862 21.721l124.742 144.601c2.482 3.103 6.827 4.965 10.55 5.585 4.344 0 8.068-1.241 11.171-3.724l155.152-139.636h221.556c8.688 0 15.515-6.827 15.515-15.515s-6.827-15.515-15.515-15.515h-227.142c-3.724 0-7.447 1.241-10.55 3.724l-147.704 132.81-114.192-132.81c-2.482-3.103-6.827-4.965-11.792-4.965z" />
<glyph unicode="&#xe983;" d="M1023.379 448c0-282.77-229.23-512-512-512s-512 229.23-512 512c0 282.77 229.23 512 512 512s512-229.23 512-512z" />
<glyph unicode="&#xe984;" d="M515.103 226.444c-100.538 0-182.458 81.92-182.458 182.458 0 2.482 0 4.965 0.621 8.068v294.167h31.030v-296.65c0-1.862 0-3.724 0-5.585 0-83.161 67.646-151.428 151.428-151.428 83.161 0 150.807 67.646 151.428 150.807 0 0.621 0 1.241 0 1.241v300.994h31.030v-316.509h-0.621c-8.068-93.091-86.885-167.564-182.458-167.564z" />
<glyph unicode="&#xe985;" d="M512.621 375.389c-8.688 0-15.515 6.827-15.515 15.515v274.928c0 8.688 6.827 15.515 15.515 15.515s15.515-6.827 15.515-15.515v-274.928c0-8.688-6.827-15.515-15.515-15.515z" />
<glyph unicode="&#xe986;" d="M508.897 656.524c-95.573 0-183.079 28.548-234.589 77.576-6.206 5.585-6.206 15.515-0.621 21.721s15.515 6.206 21.721 0.621c47.166-44.684 132.189-70.749 222.798-68.887 83.782 1.862 161.978 27.307 209.144 68.267 6.206 5.585 16.136 4.965 21.721-1.241s4.965-16.136-1.241-21.721c-52.752-45.925-138.395-74.473-229.004-76.335-3.724 0-6.827 0-9.93 0z" />
<glyph unicode="&#xe987;" d="M582.128 156.936c-0.621 1.862-2.482 3.724-4.965 3.724v0h-41.581l-17.998 47.166c-0.621 1.862-2.482 3.103-4.965 3.103 0 0 0 0 0 0-1.862 0-4.344-1.241-4.965-3.724l-14.274-47.166h-50.269c-2.482 0-4.344-1.241-4.965-3.724-0.621-1.862 0-4.344 1.862-5.585l41.581-26.686-13.653-43.442c-0.621-1.862 0-4.344 1.862-5.585s4.344-1.241 6.206 0l37.857 27.927 43.442-27.927c0.621-0.621 1.862-0.621 2.482-0.621 1.241 0 2.482 0.621 3.103 1.241 1.862 1.241 2.482 3.724 1.241 5.585l-17.998 46.545 32.272 23.583c3.724 1.241 4.344 3.724 3.724 5.585z" />
<glyph unicode="&#xe988;" d="M512-48.485c-273.687 0-496.485 222.798-496.485 496.485s222.798 496.485 496.485 496.485 496.485-222.798 496.485-496.485-222.798-496.485-496.485-496.485z" />
<glyph unicode="&#xe989;" d="M512 928.97c264.999 0 480.97-215.35 480.97-480.97s-215.971-480.97-480.97-480.97-480.97 215.971-480.97 480.97 215.971 480.97 480.97 480.97zM512 960c-282.996 0-512-229.004-512-512s229.004-512 512-512 512 229.624 512 512-229.004 512-512 512v0z" />
<glyph unicode="&#xe98a;" d="M515.103 226.444c-100.538 0-182.458 81.92-182.458 182.458 0 2.482 0 4.965 0.621 8.068v294.167h31.030v-296.029c0-1.862 0-3.724 0-5.585 0-83.161 67.646-151.428 151.428-151.428 83.161 0 150.807 67.646 151.428 150.807 0 0.621 0 1.241 0 1.241v300.994h31.030v-316.509h-0.621c-8.068-93.712-86.885-168.184-182.458-168.184z" />
<glyph unicode="&#xe98b;" d="M512.621 375.389c-8.688 0-15.515 6.827-15.515 15.515v274.928c0 8.688 6.827 15.515 15.515 15.515s15.515-6.827 15.515-15.515v-274.928c0-8.688-6.827-15.515-15.515-15.515z" />
<glyph unicode="&#xe98c;" d="M508.897 656.524c-95.573 0-183.079 28.548-234.589 77.576-6.206 5.585-6.206 15.515-0.621 21.721s15.515 6.206 21.721 0.621c47.166-44.684 132.81-70.749 222.798-68.887 83.782 1.862 161.978 27.307 209.144 68.267 6.206 5.585 16.136 4.965 21.721-1.241s4.965-16.136-1.241-21.721c-52.752-45.925-138.395-74.473-229.004-76.335-3.724 0-6.827 0-9.93 0z" />
<glyph unicode="&#xe98d;" d="M582.128 156.936c-0.621 1.862-2.482 3.724-4.965 3.724v0h-41.581l-17.998 47.166c-0.621 1.862-2.482 3.103-4.965 3.103 0 0 0 0 0 0-1.862 0-4.344-1.241-4.965-3.724l-14.274-47.166h-50.269c-2.482 0-4.344-1.241-4.965-3.724-0.621-1.862 0-4.344 1.862-5.585l41.581-26.686-13.653-43.442c-0.621-1.862 0-4.344 1.862-5.585s4.344-1.241 6.206 0l37.857 27.927 43.442-27.927c0.621-0.621 1.862-0.621 2.482-0.621 1.241 0 2.482 0.621 3.103 1.241 1.862 1.241 2.482 3.724 1.241 5.585l-17.998 46.545 32.272 23.583c3.724 1.241 4.344 3.724 3.724 5.585z" />
<glyph unicode="&#xe98e;" d="M1024 448c0-282.77-229.23-512-512-512s-512 229.23-512 512c0 282.77 229.23 512 512 512s512-229.23 512-512z" />
<glyph unicode="&#xe98f;" d="M460.49 118.458c-8.688 0-15.515 6.827-15.515 15.515v463.593c0 8.688 6.827 15.515 15.515 15.515s15.515-6.827 15.515-15.515v-463.593c0-8.688-6.827-15.515-15.515-15.515z" />
<glyph unicode="&#xe990;" d="M325.818 117.838c-8.688 0-15.515 6.827-15.515 15.515v301.615c0 8.688 6.827 15.515 15.515 15.515h306.579c8.688 0 15.515-6.827 15.515-15.515s-6.827-15.515-15.515-15.515h-291.064v-285.479c0-9.309-6.827-16.136-15.515-16.136z" />
<glyph unicode="&#xe991;" d="M537.445 716.102c0-39.416-31.953-71.37-71.37-71.37s-71.37 31.953-71.37 71.37c0 39.416 31.953 71.37 71.37 71.37s71.37-31.953 71.37-71.37z" />
<glyph unicode="&#xe992;" d="M292.305 409.522c-3.724 0-8.068 1.241-10.55 4.344-6.206 6.206-6.206 15.515 0 21.721l168.184 172.528c6.206 6.206 15.515 6.206 21.721 0s6.206-15.515 0-21.721l-168.184-171.908c-3.103-3.103-7.447-4.965-11.171-4.965z" />
<glyph unicode="&#xe993;" d="M741.624 529.92c22.342 0 40.339-17.998 40.339-40.339s-17.998-40.339-40.339-40.339c-22.342 0-40.339 17.998-40.339 40.339s17.998 40.339 40.339 40.339zM741.624 560.95c-39.719 0-71.37-32.272-71.37-71.37 0-39.719 31.651-71.37 71.37-71.37s71.37 32.272 71.37 71.37c0 39.719-32.272 71.37-71.37 71.37v0z" />
<glyph unicode="&#xe994;" d="M512-48.485c-273.687 0-496.485 222.798-496.485 496.485s222.798 496.485 496.485 496.485 496.485-222.798 496.485-496.485-222.798-496.485-496.485-496.485z" />
<glyph unicode="&#xe995;" d="M512 928.97c264.999 0 480.97-215.35 480.97-480.97s-215.971-480.97-480.97-480.97-480.97 215.971-480.97 480.97 215.971 480.97 480.97 480.97zM512 960c-282.996 0-512-229.004-512-512s229.004-512 512-512 512 229.624 512 512-229.004 512-512 512v0z" />
<glyph unicode="&#xe996;" d="M460.49 118.458c-8.688 0-15.515 6.827-15.515 15.515v463.593c0 8.688 6.827 15.515 15.515 15.515s15.515-6.827 15.515-15.515v-463.593c0-8.688-6.827-15.515-15.515-15.515z" />
<glyph unicode="&#xe997;" d="M325.818 117.838c-8.688 0-15.515 6.827-15.515 15.515v301.615c0 8.688 6.827 15.515 15.515 15.515h306.579c8.688 0 15.515-6.827 15.515-15.515s-6.827-15.515-15.515-15.515h-291.064v-285.479c0-9.309-6.827-16.136-15.515-16.136z" />
<glyph unicode="&#xe998;" d="M537.445 716.102c0-39.416-31.953-71.37-71.37-71.37s-71.37 31.953-71.37 71.37c0 39.416 31.953 71.37 71.37 71.37s71.37-31.953 71.37-71.37z" />
<glyph unicode="&#xe999;" d="M292.305 409.522c-3.724 0-8.068 1.241-10.55 4.344-6.206 6.206-6.206 15.515 0 21.721l168.184 172.528c6.206 6.206 15.515 6.206 21.721 0s6.206-15.515 0-21.721l-168.184-171.908c-3.103-3.103-7.447-4.965-11.171-4.965z" />
<glyph unicode="&#xe99a;" d="M741.624 529.92c22.342 0 40.339-17.998 40.339-40.339s-17.998-40.339-40.339-40.339c-22.342 0-40.339 17.998-40.339 40.339s17.998 40.339 40.339 40.339zM741.624 560.95c-39.719 0-71.37-32.272-71.37-71.37 0-39.719 31.651-71.37 71.37-71.37s71.37 32.272 71.37 71.37c0 39.719-32.272 71.37-71.37 71.37v0z" />
<glyph unicode="&#xe99b;" d="M1024.621 448c0-282.77-229.23-512-512-512s-512 229.23-512 512c0 282.77 229.23 512 512 512s512-229.23 512-512z" />
<glyph unicode="&#xe99c;" d="M590.817 735.341c-19.239 31.651-47.166 49.648-78.817 49.648-31.030 0-59.578-17.377-78.817-49.648-19.239-31.651-29.168-75.714-29.168-127.224 0-38.478 21.101-74.473 54.613-93.712 8.688-4.965 14.274-14.274 14.274-24.824v-42.201c-6.827-4.965-11.171-13.653-11.171-22.342v-263.758c0-27.927 22.962-50.89 50.89-50.89s50.89 22.962 50.89 50.89v263.758c0 8.688-4.344 17.377-11.171 22.342v42.201c0 10.55 5.585 20.48 14.274 24.824 33.513 19.239 54.613 55.234 54.613 93.712-0.621 52.131-11.171 96.194-30.41 127.224zM530.618 407.040v0-245.76c0-9.93-8.068-17.998-17.998-17.998s-17.998 8.068-17.998 17.998v258.793h35.995v-13.033zM549.236 542.953c-18.618-10.55-30.41-31.030-30.41-53.372v-36.616h-13.033v36.616c0 22.342-11.792 42.822-30.41 53.372-23.583 13.653-38.478 38.478-38.478 65.164 0 45.925 8.688 83.782 24.204 110.468 13.653 22.342 31.030 34.133 50.89 34.133s37.236-11.792 50.89-34.133c16.136-26.065 24.204-64.543 24.204-110.468 0.621-26.686-14.274-52.131-37.857-65.164z" />
<glyph unicode="&#xe99d;" d="M512-48.485c-273.687 0-496.485 222.798-496.485 496.485s222.798 496.485 496.485 496.485 496.485-222.798 496.485-496.485-222.798-496.485-496.485-496.485z" />
<glyph unicode="&#xe99e;" d="M512 928.97c264.999 0 480.97-215.35 480.97-480.97s-215.971-480.97-480.97-480.97-480.97 215.971-480.97 480.97 215.971 480.97 480.97 480.97zM512 960c-282.996 0-512-229.004-512-512s229.004-512 512-512 512 229.624 512 512-229.004 512-512 512v0z" />
<glyph unicode="&#xe99f;" d="M590.817 735.341c-19.239 31.651-47.166 49.648-78.817 49.648-31.030 0-59.578-17.377-78.817-49.648-19.239-31.651-29.168-75.714-29.168-127.224 0-38.478 21.101-74.473 54.613-93.712 8.688-4.965 14.274-14.274 14.274-24.824v-42.201c-6.827-4.965-11.171-13.653-11.171-22.342v-263.758c0-27.927 22.962-50.89 50.89-50.89s50.89 22.962 50.89 50.89v263.758c0 8.688-4.344 17.377-11.171 22.342v42.201c0 10.55 5.585 20.48 14.274 24.824 33.513 19.239 54.613 55.234 54.613 93.712-0.621 52.131-11.171 96.194-30.41 127.224zM530.618 407.040v0-245.76c0-9.93-8.068-17.998-17.998-17.998s-17.998 8.068-17.998 17.998v258.793h35.995v-13.033zM549.236 542.953c-18.618-10.55-30.41-31.030-30.41-53.372v-36.616h-13.033v36.616c0 22.342-11.792 42.822-30.41 53.372-23.583 13.653-38.478 38.478-38.478 65.164 0 45.925 8.688 83.782 24.204 110.468 13.653 22.342 31.030 34.133 50.89 34.133s37.236-11.792 50.89-34.133c16.136-26.065 24.204-64.543 24.204-110.468 0.621-26.686-14.274-52.131-37.857-65.164z" />
<glyph unicode="&#xe9a0;" d="M1024.621 448c0-282.77-229.23-512-512-512s-512 229.23-512 512c0 282.77 229.23 512 512 512s512-229.23 512-512z" />
<glyph unicode="&#xe9a1;" d="M379.811 677.004c22.342 0 40.339-17.998 40.339-40.339s-17.998-40.339-40.339-40.339c-22.342 0-40.339 17.998-40.339 40.339s17.998 40.339 40.339 40.339zM379.811 708.034c-39.719 0-71.37-32.272-71.37-71.37 0-39.719 31.651-71.37 71.37-71.37s71.37 32.272 71.37 71.37c0 39.719-32.272 71.37-71.37 71.37v0z" />
<glyph unicode="&#xe9a2;" d="M638.604 703.69c0-39.416-31.953-71.37-71.37-71.37s-71.37 31.953-71.37 71.37c0 39.416 31.953 71.37 71.37 71.37s71.37-31.953 71.37-71.37z" />
<glyph unicode="&#xe9a3;" d="M408.359 130.87c-8.688 0-15.515 6.827-15.515 15.515v176.252c0 8.688 6.827 15.515 15.515 15.515h144.601l-1.862 246.381c0 8.688 6.827 15.515 15.515 15.515 0 0 0 0 0 0 8.688 0 15.515-6.827 15.515-15.515l1.862-261.896c0-4.344-1.862-8.068-4.344-11.171-3.103-3.103-6.827-4.344-11.171-4.344h-144.601v-160.737c0-8.068-6.827-15.515-15.515-15.515z" />
<glyph unicode="&#xe9a4;" d="M625.571 173.692c-8.688 0-15.515 6.827-15.515 15.515v166.943l-136.533 1.862c-6.827 0-12.412 4.344-14.274 10.55l-49.648 147.704c-2.482 8.068 1.862 16.756 9.93 19.859 8.068 2.482 16.756-1.862 19.859-9.93l45.304-137.154 140.878-1.862c8.688 0 15.515-6.827 15.515-15.515v-182.458c0-8.688-6.827-15.515-15.515-15.515z" />
<glyph unicode="&#xe9a5;" d="M512.621-48.485c-273.687 0-496.485 222.798-496.485 496.485s222.798 496.485 496.485 496.485 496.485-222.798 496.485-496.485-222.798-496.485-496.485-496.485z" />
<glyph unicode="&#xe9a6;" d="M512.621 928.97c264.999 0 480.97-215.971 480.97-480.97s-215.971-480.97-480.97-480.97-480.97 215.971-480.97 480.97 215.35 480.97 480.97 480.97zM512.621 960c-282.996 0-512-229.004-512-512s229.004-512 512-512 512 229.004 512 512-229.624 512-512 512v0z" />
<glyph unicode="&#xe9a7;" d="M379.811 677.004c22.342 0 40.339-17.998 40.339-40.339s-17.998-40.339-40.339-40.339c-22.342 0-40.339 17.998-40.339 40.339s17.998 40.339 40.339 40.339zM379.811 708.034c-39.719 0-71.37-32.272-71.37-71.37 0-39.719 31.651-71.37 71.37-71.37s71.37 32.272 71.37 71.37c0 39.719-32.272 71.37-71.37 71.37v0z" />
<glyph unicode="&#xe9a8;" d="M638.604 703.69c0-39.416-31.953-71.37-71.37-71.37s-71.37 31.953-71.37 71.37c0 39.416 31.953 71.37 71.37 71.37s71.37-31.953 71.37-71.37z" />
<glyph unicode="&#xe9a9;" d="M408.359 130.87c-8.688 0-15.515 6.827-15.515 15.515v176.252c0 8.688 6.827 15.515 15.515 15.515h144.601l-1.862 246.381c0 8.688 6.827 15.515 15.515 15.515s15.515-6.827 15.515-15.515l1.862-261.896c0-4.344-1.862-8.068-4.344-11.171-3.103-3.103-6.827-4.344-11.171-4.344h-144.601v-160.737c0-8.068-6.827-15.515-15.515-15.515z" />
<glyph unicode="&#xe9aa;" d="M625.571 173.692c-8.688 0-15.515 6.827-15.515 15.515v166.943l-136.533 1.862c-6.827 0-12.412 4.344-14.274 10.55l-49.648 147.704c-2.482 8.068 1.862 16.756 9.93 19.859 8.068 2.482 16.756-1.862 19.859-9.93l45.304-137.154 140.878-1.862c8.688 0 15.515-6.827 15.515-15.515v-182.458c0-8.688-6.827-15.515-15.515-15.515z" />
<glyph unicode="&#xe9ab;" d="M1025.862 448c0-282.77-229.23-512-512-512s-512 229.23-512 512c0 282.77 229.23 512 512 512s512-229.23 512-512z" />
<glyph unicode="&#xe9ac;" d="M598.264 649.697h-31.030c0 29.168-23.583 52.752-52.752 52.752s-52.752-23.583-52.752-52.752h-31.030c0 46.545 37.857 83.782 83.782 83.782s83.782-37.236 83.782-83.782z" />
<glyph unicode="&#xe9ad;" d="M631.156 696.863c-6.206 0-11.792 3.724-14.274 9.309-7.447 17.377-22.342 31.030-40.96 37.236-8.068 2.482-12.412 11.171-9.93 19.859 2.482 8.068 11.171 12.412 19.859 9.93 26.686-8.688 48.407-28.548 59.578-53.993 3.724-8.068 0-16.756-8.068-20.48-1.862-1.241-3.724-1.862-6.206-1.862z" />
<glyph unicode="&#xe9ae;" d="M651.636 739.064c-4.965 0-9.93 2.482-13.033 7.447-6.827 10.55-15.515 18.618-26.686 24.204-7.447 3.724-10.55 13.033-6.827 21.101 3.724 7.447 13.033 10.55 21.101 6.827 16.136-8.068 29.168-20.48 39.098-35.375 4.344-7.447 2.482-16.756-4.965-21.101-3.103-2.482-5.585-3.103-8.688-3.103z" />
<glyph unicode="&#xe9af;" d="M395.947 696.863c-1.862 0-4.344 0.621-6.206 1.241-8.068 3.724-11.171 12.412-8.068 20.48 11.171 25.445 32.892 45.304 59.578 53.993 8.068 2.482 16.756-1.862 19.859-9.93 2.482-8.068-1.862-16.756-9.93-19.859-17.998-6.206-33.513-19.859-40.96-37.236-2.482-4.965-8.688-8.688-14.274-8.688z" />
<glyph unicode="&#xe9b0;" d="M375.467 739.064c-3.103 0-5.585 0.621-8.068 2.482-7.447 4.344-9.309 14.274-4.965 21.101 9.309 14.895 22.962 27.307 39.098 35.375 7.447 3.724 16.756 0.621 21.101-6.827 3.724-7.447 0.621-16.756-6.827-21.101-11.171-5.585-19.859-14.274-26.686-24.204-3.724-4.344-8.688-6.827-13.653-6.827z" />
<glyph unicode="&#xe9b1;" d="M582.749 96.737h-136.533c-8.688 0-15.515 6.827-15.515 15.515v78.817c0 8.688 6.827 15.515 15.515 15.515s15.515-6.827 15.515-15.515v-63.302h106.124v63.302c0 8.688 6.827 15.515 15.515 15.515s15.515-6.827 15.515-15.515v-78.817c-0.621-8.688-7.447-15.515-16.136-15.515z" />
<glyph unicode="&#xe9b2;" d="M582.749 142.662h-136.533c-8.688 0-15.515 6.827-15.515 15.515s6.827 15.515 15.515 15.515h137.154c8.688 0 15.515-6.827 15.515-15.515s-7.447-15.515-16.136-15.515z" />
<glyph unicode="&#xe9b3;" d="M598.264 188.587h-167.564v466.696h168.184v-466.696zM461.731 219.617h106.124v404.635h-106.124v-404.635z" />
<glyph unicode="&#xe9b4;" d="M512-48.485c-273.687 0-496.485 222.798-496.485 496.485s222.798 496.485 496.485 496.485 496.485-222.798 496.485-496.485-222.798-496.485-496.485-496.485z" />
<glyph unicode="&#xe9b5;" d="M512 928.97c264.999 0 480.97-215.35 480.97-480.97s-215.971-480.97-480.97-480.97-480.97 215.971-480.97 480.97 215.971 480.97 480.97 480.97zM512 960c-282.996 0-512-229.004-512-512s229.004-512 512-512 512 229.624 512 512-229.004 512-512 512v0z" />
<glyph unicode="&#xe9b6;" d="M598.264 649.697h-31.030c0 29.168-23.583 52.752-52.752 52.752s-52.752-23.583-52.752-52.752h-31.030c0 46.545 37.857 83.782 83.782 83.782s83.782-37.236 83.782-83.782z" />
<glyph unicode="&#xe9b7;" d="M631.156 696.863c-6.206 0-11.792 3.724-14.274 9.309-7.447 17.377-22.342 31.030-40.96 37.236-8.068 2.482-12.412 11.171-9.93 19.859 2.482 8.068 11.171 12.412 19.859 9.93 26.686-8.688 48.407-28.548 59.578-53.993 3.724-8.068 0-16.756-8.068-20.48-1.862-1.241-3.724-1.862-6.206-1.862z" />
<glyph unicode="&#xe9b8;" d="M651.636 739.064c-4.965 0-9.93 2.482-13.033 7.447-6.827 10.55-15.515 18.618-26.686 24.204-7.447 3.724-10.55 13.033-6.827 21.101 3.724 7.447 13.033 10.55 21.101 6.827 16.136-8.068 29.168-20.48 39.098-35.375 4.344-7.447 2.482-16.756-4.965-21.101-3.103-2.482-5.585-3.103-8.688-3.103z" />
<glyph unicode="&#xe9b9;" d="M395.947 696.863c-1.862 0-4.344 0.621-6.206 1.241-8.068 3.724-11.171 12.412-8.068 20.48 11.171 25.445 32.892 45.304 59.578 53.993 8.068 2.482 16.756-1.862 19.859-9.93 2.482-8.068-1.862-16.756-9.93-19.859-17.998-6.206-33.513-19.859-40.96-37.236-2.482-4.965-8.688-8.688-14.274-8.688z" />
<glyph unicode="&#xe9ba;" d="M375.467 739.064c-3.103 0-5.585 0.621-8.068 2.482-7.447 4.344-9.309 14.274-4.965 21.101 9.309 14.895 22.962 27.307 39.098 35.375 7.447 3.724 16.756 0.621 21.101-6.827 3.724-7.447 0.621-16.756-6.827-21.101-11.171-5.585-19.859-14.274-26.686-24.204-3.724-4.344-8.688-6.827-13.653-6.827z" />
<glyph unicode="&#xe9bb;" d="M582.749 96.737h-136.533c-8.688 0-15.515 6.827-15.515 15.515v78.817c0 8.688 6.827 15.515 15.515 15.515s15.515-6.827 15.515-15.515v-63.302h106.124v63.302c0 8.688 6.827 15.515 15.515 15.515s15.515-6.827 15.515-15.515v-78.817c-0.621-8.688-7.447-15.515-16.136-15.515z" />
<glyph unicode="&#xe9bc;" d="M582.749 142.662h-136.533c-8.688 0-15.515 6.827-15.515 15.515s6.827 15.515 15.515 15.515h137.154c8.688 0 15.515-6.827 15.515-15.515s-7.447-15.515-16.136-15.515z" />
<glyph unicode="&#xe9bd;" d="M598.264 188.587h-167.564v466.696h168.184v-466.696zM461.731 219.617h106.124v404.635h-106.124v-404.635z" />
<glyph unicode="&#xe9be;" d="M1025.241 447.379c0-282.77-229.23-512-512-512s-512 229.23-512 512c0 282.77 229.23 512 512 512s512-229.23 512-512z" />
<glyph unicode="&#xe9bf;" d="M240.795 322.017c-3.724 0-6.827 1.241-9.93 3.724l-131.568 107.365c-6.827 5.585-7.447 14.895-2.482 21.721 5.585 6.827 14.895 7.447 21.721 2.482l114.812-93.712 82.541 229.624c2.482 6.206 8.068 10.55 14.895 10.55 0 0 0 0 0 0l230.245-0.621c8.688 0 15.515-6.827 15.515-15.515s-6.827-15.515-15.515-15.515c0 0 0 0 0 0l-219.074 0.621-86.264-240.175c-1.862-4.965-5.585-8.068-10.55-9.93-1.862-0.621-3.103-0.621-4.344-0.621z" />
<glyph unicode="&#xe9c0;" d="M695.699 320.776c0 0 0 0 0 0l-230.245 0.621c-8.688 0-15.515 6.827-15.515 15.515s6.827 15.515 15.515 15.515c0 0 0 0 0 0l219.074-0.621 86.264 240.175c1.862 4.965 5.585 8.068 10.55 9.93 4.965 1.241 9.93 0 13.653-3.103l131.568-107.365c6.827-5.585 7.447-14.895 2.482-21.721-5.585-6.827-14.895-7.447-21.721-2.482l-114.812 93.712-82.541-229.624c-1.862-6.827-7.447-10.55-14.274-10.55z" />
<glyph unicode="&#xe9c1;" d="M673.978 462.274c0-39.416-31.953-71.37-71.37-71.37s-71.37 31.953-71.37 71.37c0 39.416 31.953 71.37 71.37 71.37s71.37-31.953 71.37-71.37z" />
<glyph unicode="&#xe9c2;" d="M494.002 462.274c0-39.416-31.953-71.37-71.37-71.37s-71.37 31.953-71.37 71.37c0 39.416 31.953 71.37 71.37 71.37s71.37-31.953 71.37-71.37z" />
<glyph unicode="&#xe9c3;" glyph-name="bar" d="M160.914-49.371c-57.051 0-102.4 45.349-102.4 102.4v248.686c0 57.051 45.349 102.4 102.4 102.4s102.4-45.349 102.4-102.4v-248.686c0-57.051-45.349-102.4-102.4-102.4zM160.914 374.857c-40.96 0-73.143-32.183-73.143-73.143v-248.686c0-40.96 32.183-73.143 73.143-73.143s73.143 32.183 73.143 73.143v248.686c0 40.96-32.183 73.143-73.143 73.143zM512-49.371c-57.051 0-102.4 45.349-102.4 102.4v789.943c0 57.051 45.349 102.4 102.4 102.4s102.4-45.349 102.4-102.4v-789.943c0-57.051-45.349-102.4-102.4-102.4zM512 916.114c-40.96 0-73.143-32.183-73.143-73.143v-789.943c0-40.96 32.183-73.143 73.143-73.143s73.143 32.183 73.143 73.143v789.943c0 40.96-32.183 73.143-73.143 73.143zM848.457-34.743c-57.051 0-102.4 45.349-102.4 102.4v512c0 57.051 45.349 102.4 102.4 102.4s102.4-45.349 102.4-102.4v-512c0-57.051-45.349-102.4-102.4-102.4zM848.457 652.8c-40.96 0-73.143-32.183-73.143-73.143v-512c0-40.96 32.183-73.143 73.143-73.143s73.143 32.183 73.143 73.143v512c0 40.96-32.183 73.143-73.143 73.143z" />
<glyph unicode="&#xe9c4;" glyph-name="data" d="M1007.909-61.074h-988.891c-8.777 0-14.629 5.851-14.629 14.629s5.851 14.629 14.629 14.629h988.891c8.777 0 14.629-5.851 14.629-14.629s-7.314-14.629-14.629-14.629zM889.417 664.503h-232.594v269.166c0 14.629-13.166 26.331-27.794 26.331h-235.52c-14.629 0-26.331-11.703-26.331-26.331v-457.874h-232.594c-14.629 0-26.331-11.703-26.331-26.331v-337.92c0-14.629 11.703-26.331 26.331-26.331h753.371c14.629 0 26.331 11.703 26.331 26.331v526.629c1.463 14.629-10.24 26.331-24.869 26.331zM137.509 446.537h229.669v-332.069h-229.669v332.069zM396.434 347.063v583.68h229.669v-814.811h-229.669v231.131zM886.491 114.469h-229.669v520.777h229.669v-520.777z" />
<glyph unicode="&#xe9c5;" glyph-name="hand" d="M433.152 480.768c-3.072 0-5.12 2.048-5.12 5.12v202.24c0 3.072 2.048 5.12 5.12 5.12s5.12-2.048 5.12-5.12v-202.24c0-3.072-2.048-5.12-5.12-5.12zM492.544 79.872c-75.264 0-136.192 58.368-161.28 112.64l-115.712 212.48c-5.12 9.216-6.656 20.48-3.584 30.72s9.728 18.944 18.944 24.576l3.584 2.048c4.608 2.56 10.752 4.096 13.824 4.608 8.192 1.536 16.896 0 24.576-4.096 8.192-4.096 12.8-10.752 17.408-16.896 3.072-4.096 6.144-7.68 9.216-11.776l21.504-26.624c6.656-8.192 13.312-15.872 19.456-24.064 2.56-3.072 8.192-10.24 12.8-16.896v317.44c0 24.576 17.408 43.008 40.448 43.008h4.096c11.776 0 23.040-5.12 30.208-13.824v11.776c0 22.528 17.92 40.448 40.448 40.448h4.096c22.528 0 40.96-17.92 40.96-40.448v-13.312c7.68 8.704 18.944 14.848 29.696 14.848h4.096c22.528 0 40.448-17.92 40.448-40.448v-82.944c7.68 8.192 18.432 13.824 30.208 13.824h4.096c22.528 0 40.448-17.92 40.448-40.448v-314.368c0-1.024 0-2.56 0-3.584-3.584-99.84-78.336-178.688-169.984-178.688zM254.464 457.216c-1.536 0-3.072 0-4.608-0.512-4.096-1.024-8.192-2.048-10.752-3.584l-3.584-2.048c-7.168-4.096-12.288-10.24-14.336-18.432-2.048-7.68-1.024-15.872 3.072-23.040l116.224-212.48c23.552-51.712 81.408-107.008 152.064-107.008 86.016 0 156.16 74.24 159.744 169.472 0 1.024 0 2.048 0 3.072v314.368c0 16.896-13.824 30.208-30.208 30.208h-4.096c-16.896 0-30.208-13.824-30.208-30.208 0-3.072-2.048-5.12-5.12-5.12s-5.12 2.048-5.12 5.12v109.568c0 16.896-13.824 30.208-30.208 30.208h-4.096c-15.36 0-29.696-16.384-29.696-29.184 0 0 0 0 0 0v-235.008c0-3.072-2.048-5.12-5.12-5.12s-5.12 2.048-5.12 5.12v272.896c0 16.896-13.824 30.208-30.72 30.208h-4.096c-16.896 0-30.208-13.824-30.208-30.208v-38.912c0-3.072-2.048-5.12-5.12-5.12s-5.12 2.048-5.12 5.12c0 16.896-13.824 30.208-30.208 30.208h-3.584c-17.408 0-30.208-14.336-30.208-32.768v-333.312c0-2.56-1.536-4.608-4.096-5.12-2.048-0.512-4.608 0.512-5.632 2.56-1.536 2.56-15.872 22.016-21.504 28.672-6.656 8.192-13.312 16.384-19.456 24.064l-21.504 26.624c-3.072 4.096-6.656 8.192-9.728 12.288-4.096 5.632-8.192 10.752-14.336 14.336-4.096 2.048-8.704 3.072-13.312 3.072zM582.656 416.768c-3.072 0-5.12 2.048-5.12 5.12v159.232c0 3.072 2.048 5.12 5.12 5.12s5.12-2.048 5.12-5.12v-159.744c0-2.56-2.048-4.608-5.12-4.608z" />
<glyph unicode="&#xe9c6;" glyph-name="more" horiz-adv-x="4495" d="M2247.648 895.597c244.73 0 450.818-199.648 450.818-450.818s-199.648-450.818-450.818-450.818-450.818 199.648-450.818 450.818 206.088 450.818 450.818 450.818zM2247.648 960c-283.371 0-515.22-231.849-515.22-515.22s231.849-515.22 515.22-515.22c283.371 0 515.22 231.849 515.22 515.22s-231.849 515.22-515.22 515.22v0zM515.22 895.597c244.73 0 450.818-199.648 450.818-450.818s-199.648-450.818-450.818-450.818-450.818 199.648-450.818 450.818 199.648 450.818 450.818 450.818zM515.22 960c-283.371 0-515.22-231.849-515.22-515.22s231.849-515.22 515.22-515.22 515.22 231.849 515.22 515.22-231.849 515.22-515.22 515.22v0zM3986.516 895.597c244.73 0 450.818-199.648 450.818-450.818s-199.648-450.818-450.818-450.818-450.818 199.648-450.818 450.818 199.648 450.818 450.818 450.818zM3986.516 960c-283.371 0-515.22-231.849-515.22-515.22s231.849-515.22 515.22-515.22c283.371 0 515.22 231.849 515.22 515.22s-231.849 515.22-515.22 515.22v0z" />
<glyph unicode="&#xe9c7;" glyph-name="PIE" d="M466.651 886.857v-479.817h479.817c-14.629-235.52-212.114-424.229-452.023-424.229-247.223 0-450.56 203.337-450.56 452.023 0 239.909 187.246 437.394 422.766 452.023zM495.909 916.114c-266.24 0-481.28-215.040-481.28-481.28s215.040-481.28 481.28-481.28c266.24 0 481.28 215.040 481.28 481.28 0 0 0 0 0 0h-481.28v481.28c0 0 0 0 0 0v0z" />
<glyph unicode="&#xe9c8;" glyph-name="Settings" d="M636.343 927.817c0 0 0 0 0 0l4.389-103.863c0-11.703 7.314-21.943 17.554-26.331 2.926-1.463 7.314-2.926 11.703-2.926 7.314 0 14.629 2.926 20.48 7.314l76.069 70.217c0 0 0 0 0 0s0 0 0 0 0 0 0 0 0 0 0 0l172.617-172.617c0 0 0 0-1.463-1.463l-68.754-74.606c-7.314-8.777-10.24-20.48-5.851-30.72s14.629-17.554 26.331-17.554l103.863-4.389c0 0 0 0 0 0v-244.297c0 0-1.463 0-1.463 0l-103.863-4.389c-11.703 0-21.943-7.314-26.331-17.554s-2.926-21.943 5.851-30.72l70.217-76.069c0 0 0 0 0 0s0 0 0 0l-171.154-175.543c0 0 0 0-1.463 1.463l-76.069 70.217c-5.851 4.389-13.166 7.314-20.48 7.314-4.389 0-7.314 0-11.703-2.926-10.24-4.389-17.554-14.629-17.554-26.331l-4.389-103.863c0 0 0 0 0 0h-244.297c0 0 0 1.463 0 1.463l-4.389 103.863c0 11.703-7.314 21.943-17.554 26.331-2.926 1.463-7.314 2.926-11.703 2.926-7.314 0-14.629-2.926-20.48-7.314l-76.069-70.217c0 0 0 0 0 0l-172.617 169.691c0 0 0 0 1.463 1.463l70.217 76.069c7.314 8.777 10.24 20.48 5.851 30.72s-14.629 17.554-26.331 17.554l-103.863 4.389c0 0 0 0 0 0v245.76c0 0 1.463 0 1.463 0l103.863 4.389c11.703 0 21.943 7.314 26.331 17.554s2.926 21.943-5.851 30.72l-73.143 77.531c0 0 0 0 0 0s0 0 0 0l172.617 172.617c0 0 0 0 1.463-1.463l76.069-70.217c5.851-4.389 13.166-7.314 20.48-7.314 4.389 0 7.314 0 11.703 2.926 10.24 4.389 17.554 14.629 17.554 26.331l4.389 103.863c0 0 0 0 0 0h244.297zM636.343 957.074h-245.76c-16.091 0-29.257-13.166-29.257-29.257l-4.389-103.863-76.069 70.217c-5.851 5.851-13.166 8.777-20.48 8.777s-14.629-2.926-20.48-8.777l-172.617-172.617c-11.703-11.703-11.703-29.257 0-40.96l70.217-76.069-103.863-4.389c-16.091 0-29.257-13.166-29.257-29.257v-244.297c0-16.091 13.166-29.257 29.257-29.257 0 0 0 0 0 0l103.863-4.389-70.217-76.069c-11.703-11.703-11.703-29.257 0-40.96l172.617-172.617c5.851-5.851 13.166-8.777 20.48-8.777s14.629 2.926 20.48 8.777l76.069 70.217 4.389-103.863c0-16.091 13.166-29.257 29.257-29.257h244.297c16.091 0 29.257 13.166 29.257 29.257l4.389 103.863 76.069-70.217c5.851-5.851 13.166-8.777 20.48-8.777s14.629 2.926 20.48 8.777l172.617 172.617c11.703 11.703 11.703 29.257 0 40.96l-70.217 76.069 103.863 4.389c16.091 0 29.257 13.166 29.257 29.257v244.297c0 16.091-13.166 29.257-29.257 29.257 0 0 0 0 0 0l-103.863 4.389 70.217 76.069c11.703 11.703 11.703 29.257 0 40.96l-171.154 172.617c-5.851 5.851-13.166 8.777-20.48 8.777s-14.629-2.926-20.48-7.314l-76.069-70.217-4.389 103.863c0 14.629-13.166 27.794-29.257 27.794v0z" />
</font>
</defs>
</svg>
