<?xml version="1.0" encoding="utf-8"?>
<!-- Generator: Adobe Illustrator 16.0.0, SVG Export Plug-In . SVG Version: 6.00 Build 0)  -->
<!DOCTYPE svg PUBLIC "-//W3C//DTD SVG 1.1//EN" "http://www.w3.org/Graphics/SVG/1.1/DTD/svg11.dtd">
<svg version="1.1" id="Layer_1" xmlns="http://www.w3.org/2000/svg" xmlns:xlink="http://www.w3.org/1999/xlink" x="0px" y="0px"
	 width="2346px" height="1771.661px" viewBox="0 0 2346 1771.661" enable-background="new 0 0 2346 1771.661" xml:space="preserve">
<g>
	<g>
		<path stroke="#FFFFFF" stroke-width="20" fill="#FFFFFF" fill-opacity="0"  d="M1276.859,914.961l347.766,298.146c29.902,26.853,32.365,72.89,5.447,102.8
			c-14.322,16.04-34.209,24.138-54.168,24.129c-17.367-0.01-34.732-6.157-48.635-18.684l-359.664-308.432L1276.859,914.961z"/>
		<path class="large" stroke="#FFFFFF" stroke-width="20" fill="#FFFFFF" fill-opacity="0" d="M997.578,844.596L786.859,643.073l-0.23,458.479l744.354-679.854
			c29.688-27.125,75.725-25.033,102.883,4.666c27.129,29.698,25.041,75.769-4.66,102.896L762.85,1320.566
			c-13.719,12.479-31.328,19.052-49.176,19.045c-9.941-0.006-19.912-2.046-29.344-6.189c-26.387-11.65-43.396-37.817-43.383-66.687
			l0.393-791.736c0.016-29.008,17.217-55.259,43.857-66.78c26.609-11.522,57.541-6.146,78.744,13.677l341.229,324.368
			L997.578,844.596z"/>
	</g>
</g>
</svg>
