<?xml version="1.0" encoding="utf-8"?>
<!-- Generator: Adobe Illustrator 21.1.0, SVG Export Plug-In . SVG Version: 6.00 Build 0)  -->
<svg version="1.1" id="Layer_1" xmlns="http://www.w3.org/2000/svg" xmlns:xlink="http://www.w3.org/1999/xlink" x="0px" y="0px"
	 viewBox="0 0 70 70" style="enable-background:new 0 0 70 70;" xml:space="preserve">
<style type="text/css">
	.st0{fill:#FFFFFF;}
</style>
<g>
	<path d="M11,69c-3.9,0-7-3.1-7-7V45c0-3.9,3.1-7,7-7s7,3.1,7,7v17C18,65.9,14.9,69,11,69z M11,40c-2.8,0-5,2.2-5,5v17
		c0,2.8,2.2,5,5,5s5-2.2,5-5V45C16,42.2,13.8,40,11,40z"/>
</g>
<g>
	<path d="M35,69c-3.9,0-7-3.1-7-7V8c0-3.9,3.1-7,7-7c3.9,0,7,3.1,7,7v54C42,65.9,38.9,69,35,69z M35,3c-2.8,0-5,2.2-5,5
		v54c0,2.8,2.2,5,5,5s5-2.2,5-5V8C40,5.2,37.8,3,35,3z"/>
</g>
<g>
	<path d="M58,68c-3.9,0-7-3.1-7-7V26c0-3.9,3.1-7,7-7s7,3.1,7,7v35C65,64.9,61.9,68,58,68z M58,21c-2.8,0-5,2.2-5,5v35
		c0,2.8,2.2,5,5,5s5-2.2,5-5V26C63,23.2,60.8,21,58,21z"/>
</g>
</svg>
