<?xml version="1.0" encoding="utf-8"?>
<!-- Generator: Adobe Illustrator 21.1.0, SVG Export Plug-In . SVG Version: 6.00 Build 0)  -->
<svg version="1.1" id="Layer_2" xmlns="http://www.w3.org/2000/svg" xmlns:xlink="http://www.w3.org/1999/xlink" x="0px" y="0px"
	 viewBox="0 0 70 70" style="enable-background:new 0 0 70 70;" xml:space="preserve">
<style type="text/css">
	.st0{fill:#FFFFFF;}
</style>
<g>
	<path class="st0" d="M68.9,69.8H1.3c-0.6,0-1-0.4-1-1s0.4-1,1-1h67.6c0.6,0,1,0.4,1,1S69.4,69.8,68.9,69.8z"/>
</g>
<g>
	<path class="st0" d="M60.8,20.2H44.9V1.8C44.9,0.8,44,0,43,0H26.9c-1,0-1.8,0.8-1.8,1.8v31.3H9.2c-1,0-1.8,0.8-1.8,1.8V58
		c0,1,0.8,1.8,1.8,1.8h51.5c1,0,1.8-0.8,1.8-1.8V22C62.6,21,61.8,20.2,60.8,20.2z M9.4,35.1h15.7v22.7H9.4V35.1z M27.1,41.9V2h15.7
		v16v39.7H27.1V41.9z M60.6,57.8H44.9V22.2h15.7V57.8z"/>
</g>
</svg>
