<?xml version="1.0" encoding="utf-8"?>
<!-- Generator: Adobe Illustrator 21.1.0, SVG Export Plug-In . SVG Version: 6.00 Build 0)  -->
<svg version="1.1" id="Layer_1" xmlns="http://www.w3.org/2000/svg" xmlns:xlink="http://www.w3.org/1999/xlink" x="0px" y="0px"
	 viewBox="0 0 207.7 148.3" style="enable-background:new 0 0 207.7 148.3;" xml:space="preserve">
<style type="text/css">
	.st0{fill:none;stroke:#FFFFFF;stroke-width:2;stroke-linejoin:round;stroke-miterlimit:10;}
</style>
<path d="M81.1,10.7c0,0,2.9,0.9,14.1,6.2c10.7,5,21.2,11.8,29.4,20.4c8,8.3,13.8,19.7,17.7,30.5
	c6.2,17.2,7.4,37.8-3.3,53.6c-5.1,7.5-13.5,13.7-21.7,17.2c-20.8,8.7-44.4-1.3-55.7-20.1c-3.2-5.3-5.4-11.3-6.3-17.5
	c-1.9-13.8,3.3-27.1,12.1-37.5c6-7.1,12.9-13.7,18-21.6c3.7-5.6,4.4-12.6,2.3-19C86.2,18.4,83.4,14.6,81.1,10.7z"/>
<path d="M107.6,90.3c0,0-1.1,0.4-5.5,2.4c-4.2,2-8.3,4.6-11.5,8c-3.1,3.3-5.4,7.7-6.9,11.9c-2.4,6.7-2.9,14.8,1.3,21
	c2,2.9,5.3,5.4,8.5,6.7c8.2,3.4,17.4-0.5,21.8-7.9c1.3-2.1,2.1-4.4,2.5-6.8c0.7-5.4-1.3-10.6-4.7-14.7c-2.4-2.8-5.1-5.4-7.1-8.4
	c-1.4-2.2-1.7-4.9-0.9-7.4C105.6,93.3,106.7,91.8,107.6,90.3z"/>
</svg>
