<?xml version="1.0" encoding="utf-8"?>
<!-- Generator: Adobe Illustrator 21.1.0, SVG Export Plug-In . SVG Version: 6.00 Build 0)  -->
<svg version="1.1" id="Layer_1" xmlns="http://www.w3.org/2000/svg" xmlns:xlink="http://www.w3.org/1999/xlink" x="0px" y="0px"
	 viewBox="0 0 70 70" style="enable-background:new 0 0 70 70;" xml:space="preserve">
<style type="text/css">
	.st0{fill:#FFFFFF;}
	.st1{fill:none;stroke:#FFFFFF;stroke-width:2;stroke-miterlimit:10;}
</style>
<path d="M31.9,5v30.8v2h2h30.8c-1,16.1-14.5,29-30.9,29C16.9,66.8,3,52.9,3,35.9C3,19.5,15.8,6,31.9,5 M33.9,3
	C15.7,3,1,17.7,1,35.9c0,18.2,14.7,32.9,32.9,32.9c18.2,0,32.9-14.7,32.9-32.9c0,0,0,0,0,0H33.9L33.9,3C33.9,3,33.9,3,33.9,3L33.9,3
	z"/>
<path class="st1" d="M39,1.2V30h29.6C67.2,16,54,2.6,39,1.2z"/>
<line class="st1" x1="33" y1="36.6" x2="10.5" y2="59"/>
</svg>
